<svg width="28" height="59" viewBox="0 0 28 59" fill="none" xmlns="http://www.w3.org/2000/svg">
<path d="M11.5677 26.9927C11.4727 30.1554 12.8585 33.6042 15.7053 36.6398C13.5421 35.2235 11.1757 32.7984 10.1621 29.577C8.90903 29.8085 7.16486 29.6795 6.3143 28.7842L9.92141 27.1132L8.39256 27.566C6.49669 28.0684 5.01471 27.1286 4.32217 25.8987L10.2042 24.8044L6.63761 24.9608C4.57107 24.9927 3.29618 23.6543 2.90351 22.2207L11.0734 22.694L4.33325 21.5941C2.22269 21.1876 1.21285 19.5556 1.12038 18.0141L11.9354 20.9555L3.51658 18.0617C1.44338 17.2819 0.702392 15.4474 0.877823 13.8646L13.2777 19.6265L3.35064 14.0069C1.32653 12.7829 0.91012 10.7117 1.4057 9.08316L14.6166 18.4881L3.60366 9.4884C1.81705 7.94093 1.75878 5.82898 2.52479 4.30769L15.8531 17.7057L5.04543 5.7905C3.50866 3.99611 3.76579 1.8993 4.74966 0.507935L16.7281 16.8526L14.4111 12.9649C13.2017 10.9469 13.3806 9.89994 14.5735 8.69685L18.6784 17.688C14.5152 18.7505 11.6992 22.5856 11.5677 26.9927Z" fill="#58AE33"/>
<path d="M20.7189 50.9391C24.5113 46.8067 21.1135 41.468 17.0545 37.3797C15.7755 36.0911 14.4081 34.5638 13.2301 32.0583C10.0752 25.3459 13.593 17.3929 21.4311 17.3929L26.7244 17.3948C26.9528 17.3948 27.1744 17.5127 27.2976 17.7237C27.4809 18.0387 27.373 18.4421 27.0563 18.625L25.4515 19.548C25.2216 19.6805 25.1047 19.8839 25.1047 20.1472V22.4175C25.1047 22.7316 25.0274 23.051 24.8846 23.3308L23.8146 25.4219C23.7551 25.5383 23.7393 25.6058 23.7393 25.736V28.3954C23.7393 29.0138 23.4739 29.5654 22.9929 29.9555L22.1031 30.6761C21.7531 30.9596 21.3358 31.1119 20.9118 31.1299C20.0951 31.164 19.5843 30.7057 18.9545 30.2781C18.6568 30.0924 18.5542 29.7042 18.7284 29.3954C18.8816 29.123 18.9545 29.0183 18.9022 28.6982C18.7486 27.7616 18.6334 27.1658 18.4231 26.6572C18.2176 26.1595 17.8955 25.6912 17.3195 24.9911C16.9965 24.5985 16.7727 24.0633 16.7052 23.5042C16.6555 23.1021 16.6878 22.6783 16.8221 22.2762C16.9617 21.8571 17.209 21.4702 17.5843 21.1643C17.9719 20.8486 18.4906 20.6206 19.1628 20.5398C19.526 20.4966 19.8557 20.7559 19.8991 21.1182C19.9418 21.4802 19.6815 21.8088 19.318 21.8517C18.9193 21.9 18.6274 22.0217 18.4247 22.187C18.2527 22.3276 18.14 22.5017 18.0776 22.6893C18.0086 22.8934 17.994 23.122 18.0222 23.3487C18.0599 23.6591 18.178 23.9492 18.3468 24.1542C19.0026 24.9523 19.3804 25.5105 19.6467 26.1561C19.9089 26.7906 20.04 27.456 20.2094 28.4866C20.2648 28.8275 20.2547 29.1627 20.1486 29.4922C20.3696 29.6427 20.5748 29.8243 20.8595 29.8126C21.0014 29.807 21.1442 29.7534 21.2674 29.6537L22.1569 28.9331C22.3307 28.7921 22.4105 28.619 22.4105 28.3961V25.7366C22.4105 25.4225 22.4881 25.1031 22.6312 24.8234L23.7009 22.7319C23.7608 22.6159 23.7763 22.5477 23.7763 22.4178V20.1479C23.7763 19.6004 23.9847 19.0971 24.3764 18.7158L21.4308 18.7155C20.1888 18.7158 19.135 18.9517 18.2651 19.3651C17.191 19.876 16.3904 20.6616 15.8597 21.6083C15.3201 22.5711 15.0519 23.7092 15.0519 24.9057C15.0519 26.1759 15.3553 27.5061 15.9566 28.7603C16.335 29.5506 16.8176 30.2636 17.3531 30.9385C19.2623 33.3431 20.5926 35.1889 22.5065 37.7174C27.2149 43.9372 25.0664 48.8146 20.7189 50.9391Z" fill="#602C8C"/>
</svg>
