<svg width="263" height="79" viewBox="0 0 263 79" fill="none" xmlns="http://www.w3.org/2000/svg">
<path d="M55.0277 33.7276C30.239 35.4934 0 55.1472 0 55.1472V69.0005C0 74.5233 4.47715 79.0005 10 79.0005H253C258.523 79.0005 263 74.5234 263 69.0005V28.3727C263 28.3727 242.614 34.4371 229.012 33.7276C201.374 32.2861 204.61 4.44251 177.222 1.59824C140.845 -2.17943 141.082 39.1723 104.391 41.2245C84.6824 42.3268 74.6928 32.3268 55.0277 33.7276Z" fill="url(#paint0_linear_2294_2829)"/>
<path d="M0 55.1472C0 55.1472 30.239 35.4934 55.0277 33.7276C74.6928 32.3268 84.6824 42.3268 104.391 41.2245C141.082 39.1723 140.845 -2.17943 177.222 1.59824C204.61 4.44251 201.374 32.2861 229.012 33.7276C242.614 34.4371 263 28.3727 263 28.3727" stroke="#5A8181" stroke-width="1.91724" stroke-linecap="round"/>
<defs>
<linearGradient id="paint0_linear_2294_2829" x1="131.5" y1="1.35449" x2="131.5" y2="104.762" gradientUnits="userSpaceOnUse">
<stop stop-color="#66BEBE"/>
<stop offset="1" stop-color="white"/>
</linearGradient>
</defs>
</svg>
