<svg width="40" height="40" viewBox="0 0 40 40" fill="none" xmlns="http://www.w3.org/2000/svg">
<path fill-rule="evenodd" clip-rule="evenodd" d="M31.1122 12.9256C30.0948 12.4166 29.1256 11.8163 28.2167 11.1322C26.5022 9.82889 24.4444 7.72 24.4444 4.94222C24.4444 2.46778 26.3156 0 29.0978 0C30.3889 0 31.4333 0.515556 32.2222 1.28556C33.01 0.515556 34.0556 0 35.3478 0C38.1289 0 40 2.47 40 4.94222C40 7.63444 37.9322 9.74556 36.2344 11.0567C35.3227 11.756 34.3524 12.3757 33.3344 12.9089C33.3411 14.8467 33.3722 16.6967 33.4011 18.4478C33.4678 22.2867 33.5233 25.6522 33.2911 28.4311C32.9378 32.64 31.8944 36.0178 28.7744 37.8456C25.7067 39.6422 21.1733 40.3178 17.4189 39.8611C15.5344 39.6322 13.7356 39.1056 12.3744 38.1967C11.3844 37.5356 10.5989 36.6456 10.23 35.53C7.92222 35.4244 5.62667 35.0033 3.81111 34.25C1.85 33.4367 0 32.0278 0 29.8222V7.91333H0.00333309C0.00114414 7.86818 3.29539e-05 7.82298 0 7.77778C0 4.71 4.97444 2.22222 11.1111 2.22222C17.2478 2.22222 22.2222 4.71 22.2222 7.77778C22.2222 7.82222 22.2211 7.86889 22.2189 7.91333H22.2222V14.5233C24.0733 14.791 25.7659 15.7166 26.9901 17.1307C28.2142 18.5447 28.8879 20.3524 28.8878 22.2227C28.8877 24.093 28.2137 25.9006 26.9893 27.3145C25.765 28.7283 24.0722 29.6537 22.2211 29.9211C22.17 32.16 20.38 33.5767 18.4056 34.3811C16.7722 35.0456 14.7611 35.4122 12.7056 35.5211C12.9278 35.8189 13.2278 36.0944 13.61 36.3489C14.5767 36.9956 15.9989 37.45 17.6878 37.6556C21.0778 38.0678 25.0956 37.4244 27.6522 35.9278C29.7756 34.6833 30.7356 32.3111 31.0767 28.2456C31.3 25.5767 31.2456 22.3989 31.1822 18.6478C31.1452 16.7406 31.1218 14.8331 31.1122 12.9256ZM29.0978 2.22222C27.7844 2.22222 26.6667 3.44 26.6667 4.94222C26.6667 6.60333 27.9422 8.13333 29.5611 9.36111C30.3911 9.9858 31.278 10.5312 32.21 10.99C33.1472 10.5063 34.0396 9.94036 34.8767 9.29889C36.5122 8.03445 37.7778 6.50556 37.7778 4.94333C37.7778 3.43889 36.66 2.22222 35.3467 2.22222C34.4322 2.22222 33.7033 2.73111 33.1933 3.65L32.2222 5.40222L31.2511 3.65C30.74 2.73111 30.0111 2.22222 29.0978 2.22222ZM11.1111 13.3333C14.7456 13.3333 17.9722 12.4611 20 11.1111V14.5222C18.1481 14.7885 16.4542 15.7134 15.2288 17.1273C14.0035 18.5411 13.3288 20.3493 13.3283 22.2202C13.3279 24.0912 14.0019 25.8996 15.2266 27.314C16.4514 28.7284 18.1449 29.654 19.9967 29.9211C19.9478 30.7856 19.2489 31.6378 17.5678 32.3222C15.8733 33.0122 13.5322 33.3589 11.1233 33.3322C10.7824 33.3282 10.4416 33.3168 10.1011 33.2978V13.3111C10.4344 13.3256 10.7711 13.3333 11.1111 13.3333ZM20 7.77778C20 8.01667 19.7489 8.83111 17.9744 9.71889C16.3322 10.5389 13.9089 11.1111 11.1111 11.1111C8.31333 11.1111 5.88889 10.5389 4.24778 9.71889C2.47333 8.83111 2.22222 8.01667 2.22222 7.77778C2.22222 7.53889 2.47333 6.72444 4.24778 5.83667C5.89 5.01667 8.31333 4.44444 11.1111 4.44444C13.9089 4.44444 16.3333 5.01667 17.9744 5.83667C19.7489 6.72444 20 7.53889 20 7.77778ZM21.1111 27.7778C22.5845 27.7778 23.9976 27.1925 25.0395 26.1506C26.0814 25.1087 26.6667 23.6956 26.6667 22.2222C26.6667 20.7488 26.0814 19.3357 25.0395 18.2939C23.9976 17.252 22.5845 16.6667 21.1111 16.6667C19.6377 16.6667 18.2246 17.252 17.1827 18.2939C16.1409 19.3357 15.5556 20.7488 15.5556 22.2222C15.5556 23.6956 16.1409 25.1087 17.1827 26.1506C18.2246 27.1925 19.6377 27.7778 21.1111 27.7778Z" fill="#60DBFF"/>
</svg>
