<svg width="40" height="40" viewBox="0 0 40 40" fill="none" xmlns="http://www.w3.org/2000/svg">
<g clip-path="url(#clip0_2294_2834)">
<path d="M34.1428 5.86012C30.3658 2.08316 25.3438 0.00292969 20.0022 0.00292969C14.6605 0.00292969 9.63856 2.08324 5.86161 5.86012C0.625046 11.0968 -1.11972 18.5196 0.695046 25.2282C0.833327 25.7391 1.29653 26.0938 1.82614 26.0938H38.1783C38.7079 26.0938 39.1712 25.7391 39.3094 25.2282C39.7679 23.5332 40 21.7747 40 20.0007C40 14.6592 37.9197 9.63707 34.1428 5.86012ZM37.2573 23.7504H2.74716C0.355671 12.7216 8.80169 2.34645 20.0022 2.34645C31.1939 2.34645 39.6506 12.7129 37.2573 23.7504Z" fill="#5A8181"/>
<path d="M20.0018 10.0238C20.6489 10.0238 21.1735 9.49922 21.1735 8.85211V6.64242C21.1735 5.99531 20.6489 5.4707 20.0018 5.4707C19.3547 5.4707 18.8301 5.99531 18.8301 6.64242V8.85211C18.83 9.49922 19.3547 10.0238 20.0018 10.0238Z" fill="#5A8181"/>
<path d="M14.3381 7.84593C14.0144 7.28547 13.2979 7.09328 12.7374 7.41703C12.177 7.74054 11.985 8.45718 12.3085 9.01765L13.4133 10.9313C13.6303 11.3073 14.0242 11.5174 14.4292 11.5174C15.3226 11.5174 15.8956 10.5439 15.4428 9.75961L14.3381 7.84593Z" fill="#5A8181"/>
<path d="M10.9331 13.4115L9.01954 12.3067C8.45907 11.9829 7.74251 12.1751 7.41891 12.7356C7.09532 13.296 7.28735 14.0127 7.84782 14.3362C9.92829 15.5374 9.94048 15.5983 10.3462 15.5983C11.5399 15.5983 11.9694 14.0097 10.9331 13.4115Z" fill="#5A8181"/>
<path d="M8.85406 18.8281H6.64437C5.99727 18.8281 5.47266 19.3527 5.47266 19.9998C5.47266 20.647 5.99727 21.1716 6.64437 21.1716H8.85406C9.50117 21.1716 10.0258 20.647 10.0258 19.9998C10.0258 19.3527 9.50117 18.8281 8.85406 18.8281Z" fill="#5A8181"/>
<path d="M29.9785 19.9998C29.9785 20.647 30.5031 21.1716 31.1502 21.1716H33.3599C34.007 21.1716 34.5316 20.647 34.5316 19.9998C34.5316 19.3527 34.007 18.8281 33.3599 18.8281H31.1502C30.5031 18.8281 29.9785 19.3527 29.9785 19.9998Z" fill="#5A8181"/>
<path d="M30.985 12.3066L29.0714 13.4115C28.5109 13.735 28.319 14.4517 28.6425 15.0121C28.9663 15.5729 29.6831 15.7645 30.2431 15.441L32.1567 14.3362C32.7172 14.0127 32.9092 13.2959 32.5856 12.7355C32.2621 12.1751 31.5455 11.983 30.985 12.3066Z" fill="#5A8181"/>
<path d="M27.2669 7.41698C26.7063 7.0933 25.9898 7.28549 25.6663 7.84588L24.5615 9.75956C24.2379 10.32 24.4299 11.0367 24.9904 11.3602C25.5512 11.684 26.2677 11.4914 26.591 10.9313L27.6958 9.0176C28.0194 8.45713 27.8273 7.74049 27.2669 7.41698Z" fill="#5A8181"/>
<path d="M22.8452 15.5003L19.1737 19.1718C18.4331 19.9123 18.968 21.1721 20.0022 21.1721C20.3021 21.1721 20.602 21.0576 20.8307 20.8289L24.5022 17.1574C24.9598 16.6998 24.9598 15.9579 24.5022 15.5004C24.0447 15.0427 23.3028 15.0427 22.8452 15.5003Z" fill="#5A8181"/>
<path d="M27.199 29.2997C27.198 29.295 27.1972 29.2904 27.1962 29.2856C27.0705 28.6693 26.5443 28.2143 25.9164 28.1788C25.2883 28.1449 24.7143 28.5364 24.5201 29.1345C24.5098 29.1662 22.8068 35.1419 22.7976 35.174L21.0242 29.1633C21.0201 29.1493 21.0158 29.1355 21.0112 29.1218C20.8108 28.5254 20.2326 28.1391 19.6048 28.1803C18.9629 28.2233 18.443 28.7025 18.3341 29.3144L16.6683 38.5443C16.5533 39.1811 16.9764 39.7906 17.6133 39.9056C18.2504 40.0206 18.8595 39.5974 18.9744 38.9606L19.9222 33.7095L21.4866 39.0121C21.4907 39.0261 21.4951 39.0398 21.4997 39.0536C21.9245 40.3186 23.719 40.3106 24.1315 39.0404C24.1359 39.0268 24.1401 39.0133 24.144 38.9997L25.6543 33.7015L26.6616 38.9724C26.7831 39.6081 27.3969 40.025 28.0325 39.9034C28.6681 39.7819 29.0849 39.1682 28.9634 38.5325L27.199 29.2997Z" fill="#5A8181"/>
<path d="M32.7371 28.1768C32.09 28.1768 31.5654 28.7014 31.5654 29.3485V38.8265C31.5654 39.4736 32.09 39.9982 32.7371 39.9982C33.3843 39.9982 33.9089 39.4736 33.9089 38.8265V29.3486C33.9089 28.7014 33.3843 28.1768 32.7371 28.1768Z" fill="#5A8181"/>
<path d="M12.8268 33.3597C13.172 32.8332 13.372 32.2044 13.372 31.5295C13.372 29.6805 11.8682 28.1768 10.0193 28.1768H7.26645C6.61965 28.1768 6.09473 28.7009 6.09473 29.3485V38.8263C6.09473 39.4736 6.6202 39.998 7.26645 39.998H7.27191C7.29691 39.998 9.81223 39.9871 10.5004 39.9871C12.5533 39.9871 14.2235 38.3169 14.2235 36.264C14.2235 35.0907 13.6775 34.0425 12.8268 33.3597ZM10.0193 30.5202C10.5762 30.5202 11.0286 30.9725 11.0286 31.5295C11.0286 32.0857 10.5763 32.538 10.0193 32.538C9.81379 32.538 9.43106 32.5396 9.01387 32.5411H8.43816V30.5203H10.0193V30.5202ZM10.5004 37.6436C10.1224 37.6436 9.20215 37.6468 8.43816 37.6499V34.8861C8.60848 34.8854 8.78426 34.8846 8.95527 34.8846H10.5004C11.2613 34.8846 11.88 35.5032 11.88 36.2641C11.88 37.0241 11.2613 37.6436 10.5004 37.6436Z" fill="#5A8181"/>
</g>
<defs>
<clipPath id="clip0_2294_2834">
<rect width="40" height="40" fill="white"/>
</clipPath>
</defs>
</svg>
