<svg width="38" height="40" viewBox="0 0 38 40" fill="none" xmlns="http://www.w3.org/2000/svg">
<path d="M7.5 0C11.06 0 12.84 4.32 10.34 6.84C7.82 9.34 3.5 7.56 3.5 4C3.5 2.93913 3.92143 1.92172 4.67157 1.17157C5.42172 0.421427 6.43913 0 7.5 0ZM4.5 10H10.5C11.5609 10 12.5783 10.4214 13.3284 11.1716C14.0786 11.9217 14.5 12.9391 14.5 14V25H11.5V40H3.5V25H0.5V14C0.5 12.9391 0.921427 11.9217 1.67157 11.1716C2.42172 10.4214 3.43913 10 4.5 10ZM31.5 12H35.5L29.5 4L23.5 12H27.5V28H23.5L29.5 36L35.5 28H31.5M37.5 0H21.5V4H37.5M37.5 36H21.5V40H37.5" fill="#64E499"/>
</svg>
