<?xml version="1.0" encoding="utf-8"?>
<!-- Generator: Adobe Illustrator 13.0.0, SVG Export Plug-In . SVG Version: 6.00 Build 14948)  -->
<!DOCTYPE svg PUBLIC "-//W3C//DTD SVG 1.1//EN" "http://www.w3.org/Graphics/SVG/1.1/DTD/svg11.dtd">
<svg version="1.1" id="Layer_1" xmlns="http://www.w3.org/2000/svg" xmlns:xlink="http://www.w3.org/1999/xlink" x="0px" y="0px"
	 width="442.677px" height="185.893px" viewBox="0 0 442.677 185.893" enable-background="new 0 0 442.677 185.893"
	 xml:space="preserve">
<path fill-rule="evenodd" clip-rule="evenodd" fill="#6F6F70" d="M9.35,127.217c0,8.194,0,15.233-0.42,19.016
	c-0.315,2.627-0.841,4.309-2.731,4.729c-0.84,0.21-1.891,0.315-3.257,0.315c-1.156,0-1.47,0.524-1.47,0.945
	c0,0.631,0.63,0.946,1.785,0.946c3.678,0,9.562-0.315,11.663-0.315c2.417,0,8.93,0.315,15.129,0.315
	c0.945,0,1.681-0.315,1.681-0.946c0-0.421-0.42-0.945-1.47-0.945c-1.366,0-3.362-0.105-4.729-0.315
	c-2.732-0.42-3.256-2.102-3.572-4.623c-0.42-3.888-0.42-10.927-0.42-19.121V91.809c0-0.946,0.21-1.471,0.736-1.682
	c0.84-0.314,2.627-0.42,3.992-0.42c2.102,0,5.884,0.42,9.246,3.362c5.148,4.414,5.463,10.297,5.463,13.239
	c0,9.14-7.25,14.5-12.398,14.5c-1.996,0-3.047,0.419-3.047,1.155c0,0.63,0.631,0.945,1.157,0.945
	c0.419,0.105,2.31,0.105,2.731,0.105c13.134,0,23.219-9.036,23.219-21.645c0-4.833-2.626-8.825-4.623-10.716
	c-1.471-1.262-5.674-5.043-17.231-5.043c-4.202,0-11.557,0.209-15.339,0.209c-2.626,0-8.509-0.209-13.342-0.209
	C0.735,85.61,0,85.82,0,86.451c0,0.63,0.629,0.945,1.575,0.945c1.367,0,2.942,0.105,3.678,0.314
	c2.941,0.841,3.782,1.786,3.992,4.834C9.35,95.38,9.35,97.903,9.35,111.457V127.217z"/>
<path fill-rule="evenodd" clip-rule="evenodd" fill="#6F6F70" d="M69.39,127.217c0,8.194,0,15.233-0.42,19.016
	c-0.316,2.627-0.84,4.309-2.731,4.729c-0.841,0.21-1.892,0.315-3.257,0.315c-1.156,0-1.471,0.524-1.471,0.945
	c0,0.631,0.63,0.946,1.786,0.946c1.891,0,4.202-0.106,6.409-0.21c2.206,0,4.203-0.105,5.253-0.105c2.732,0,6.199,0.105,10.717,0.209
	c4.518,0.21,10.087,0.315,17.021,0.315c3.467,0,4.308,0,4.938-2.312c0.525-1.785,1.26-7.88,1.26-9.876
	c0-0.945-0.104-2.101-0.84-2.101c-0.63,0-0.84,0.419-1.051,1.364c-0.63,3.679-1.681,5.569-3.993,6.62
	c-2.416,1.05-6.303,1.155-8.72,1.155c-9.457,0-12.292-1.366-12.503-7.458c-0.105-2.629,0-10.193,0-13.239v-7.145
	c0-0.526,0.104-0.945,0.524-0.945c2.312,0,12.818,0.209,14.5,0.419c3.467,0.316,4.623,1.682,5.148,3.469
	c0.209,1.154,0.209,2.31,0.315,3.257c0,0.419,0.21,0.734,0.84,0.734c0.84,0,0.946-1.261,0.946-1.997c0-0.628,0.21-4.201,0.42-5.988
	c0.525-4.518,0.736-5.987,0.736-6.515c0-0.524-0.316-0.945-0.736-0.945s-0.736,0.526-1.471,1.157
	c-0.945,0.84-2.206,1.155-4.412,1.366c-2.102,0.209-14.079,0.209-16.181,0.209c-0.525,0-0.629-0.42-0.629-0.945V91.599
	c0-0.526,0.21-0.84,0.629-0.84c1.891,0,12.924,0.209,14.5,0.42c4.624,0.42,5.359,1.681,6.094,3.256
	c0.525,1.051,0.63,2.627,0.63,3.257c0,0.736,0.105,1.156,0.736,1.156c0.735,0,0.946-1.05,1.05-1.471
	c0.209-1.05,0.42-4.938,0.526-5.883c0.21-4.097,0.735-5.148,0.735-5.779c0-0.42-0.105-0.84-0.63-0.84
	c-0.421,0-0.945,0.316-1.471,0.42c-0.735,0.105-2.206,0.42-3.887,0.525c-1.787,0.105-22.274,0-25.215,0
	c-2.627,0-8.511-0.209-13.344-0.209c-1.366,0-2.102,0.209-2.102,0.841c0,0.63,0.63,0.945,1.576,0.945
	c1.366,0,2.942,0.105,3.677,0.314c2.942,0.841,3.783,1.786,3.993,4.834c0.105,2.835,0.105,5.358,0.105,18.912V127.217z"/>
<path fill-rule="evenodd" clip-rule="evenodd" fill="#6F6F70" d="M186.845,137.302c0-4.412,0-7.985,0.105-10.716
	c0.105-3.153,1.05-4.414,3.572-4.833c1.05-0.211,1.786-0.315,2.521-0.315c0.63,0,1.156-0.421,1.156-0.945
	c0-0.736-0.631-0.842-1.892-0.842c-3.046,0-7.88,0.21-10.821,0.21c-2.732,0-9.351-0.21-14.185-0.21c-1.26,0-1.996,0.105-1.996,0.842
	c0,0.524,0.63,0.945,1.471,0.945c1.261,0,2.836,0.104,3.571,0.315c2.942,0.84,3.888,1.785,3.993,4.833
	c0.105,2.73,0.105,6.094,0.105,10.506v8.195c0,1.575-0.421,2.521-1.786,3.153c-2.206,0.945-4.097,0.945-6.515,0.945
	c-19.752,0-32.151-13.975-32.151-33.202c0-10.927,3.363-17.546,8.512-21.749c6.409-5.147,12.818-5.253,17.86-5.253
	c10.402,0,17.337,3.992,20.069,6.83c2.416,2.521,2.941,5.358,3.151,7.354c0.105,0.736,0.314,1.155,0.946,1.155
	c0.735,0,1.261-0.63,1.261-1.995c0-11.243,0.63-13.659,0.63-14.71c0-0.63-0.21-0.945-1.261-1.051
	c-2.207-0.104-5.464-0.629-7.354-0.945c-1.891-0.42-9.981-1.471-16.391-1.471c-7.775,0-16.075,0.631-24.901,5.779
	c-8.51,4.939-16.18,14.92-16.18,29.208c0,24.691,20.068,34.987,42.763,34.987c7.249,0,16.39-0.945,22.588-3.991
	c1.157-0.63,1.157-0.736,1.157-3.153V137.302z"/>
<path fill-rule="evenodd" clip-rule="evenodd" fill="#6F6F70" d="M220.638,125.639c-0.315,0-0.524-0.209-0.315-0.629l8.931-22.274
	c0.105-0.315,0.211-0.841,0.526-0.841c0.21,0,0.315,0.526,0.419,0.841l8.721,22.379c0.106,0.315,0,0.524-0.419,0.524H220.638z
	 M240.497,130.578c0.419,0,0.734,0.106,0.945,0.631l7.144,18.072c0.421,1.051-0.21,1.891-0.84,1.996
	c-0.946,0.104-1.157,0.419-1.157,0.945c0,0.631,1.052,0.631,2.732,0.736c7.775,0.21,14.5,0.21,17.756,0.21
	c3.468,0,3.993-0.21,3.993-0.946c0-0.63-0.421-0.945-1.261-0.945c-1.052,0-2.101-0.105-3.467-0.315
	c-1.682-0.314-4.307-1.472-7.881-9.562c-5.883-13.553-21.328-49.696-23.534-54.635c-0.945-1.996-1.366-2.835-2.732-2.835
	c-0.945,0-1.68,1.05-2.731,3.572l-24.166,55.791c-1.891,4.516-3.467,7.249-7.669,7.879c-0.841,0-1.891,0.105-2.732,0.105
	c-0.735,0-1.051,0.419-1.051,0.945c0,0.736,0.526,0.946,1.683,0.946c4.832,0,9.77-0.315,10.716-0.315
	c2.942,0,7.25,0.315,10.296,0.315c0.946,0,1.472-0.21,1.472-0.946c0-0.526-0.211-0.945-1.366-0.945h-1.367
	c-2.837,0-3.677-0.945-3.677-2.522c0-1.05,0.42-3.256,1.366-5.462l4.938-12.084c0.21-0.524,0.315-0.631,0.84-0.631H240.497z"/>
<path fill-rule="evenodd" clip-rule="evenodd" fill="#6F6F70" d="M323.562,124.59c0,12.923,3.677,19.542,8.406,23.639
	c6.724,5.885,16.284,6.094,21.118,6.094c5.987,0,13.027-0.945,19.542-6.408c7.773-6.409,8.824-16.916,8.824-26.897v-9.561
	c0-13.554,0.105-16.076,0.212-18.912c0.209-3.153,0.84-4.413,3.36-4.834c1.157-0.209,1.682-0.314,2.733-0.314
	c1.049,0,1.575-0.315,1.575-0.945c0-0.631-0.63-0.841-1.891-0.841c-3.572,0-9.771,0.209-10.823,0.209
	c-0.104,0-6.304-0.209-11.03-0.209c-1.261,0-1.892,0.209-1.892,0.841c0,0.63,0.524,0.945,1.576,0.945
	c1.051,0,2.627,0.105,3.361,0.314c2.941,0.841,3.678,1.786,3.888,4.834c0.105,2.835,0.209,5.358,0.209,18.912v11.242
	c0,9.14-0.209,16.915-5.357,21.748c-3.677,3.573-8.406,4.728-12.397,4.728c-3.151,0-7.565-0.314-11.663-3.572
	c-4.518-3.572-7.039-8.615-7.039-21.643v-12.503c0-13.554,0-16.076,0.209-18.912c0.212-3.153,0.946-4.413,3.363-4.834
	c1.155-0.209,1.682-0.314,2.73-0.314c0.946,0,1.473-0.315,1.473-0.945c0-0.631-0.631-0.841-1.997-0.841
	c-3.361,0-9.561,0.209-11.872,0.209c-2.732,0-8.931-0.209-13.869-0.209c-1.365,0-1.997,0.209-1.997,0.841
	c0,0.63,0.526,0.945,1.578,0.945c1.261,0,2.836,0.105,3.572,0.314c2.942,0.841,3.782,1.681,3.991,4.834
	c0.21,2.835,0.105,5.358,0.105,18.912V124.59z"/>
<path fill-rule="evenodd" clip-rule="evenodd" fill="#6F6F70" d="M417.901,154.323c4.938,0,11.032-0.524,15.445-3.676
	c6.724-4.729,9.245-10.088,9.245-16.708c0-8.089-3.782-14.918-15.97-21.643l-3.782-2.101c-8.302-4.623-9.771-7.775-9.771-11.768
	c0-6.094,5.989-9.561,12.608-9.561c5.988,0,8.931,2.521,10.297,4.202c1.994,2.311,2.415,5.043,2.415,5.884
	c0,1.051,0.315,1.577,0.946,1.577c0.735,0,1.156-0.946,1.156-2.837c0-7.039,0.315-9.561,0.315-10.717
	c0-0.63-0.421-0.945-1.261-1.156c-2.418-0.629-7.146-1.471-13.135-1.471c-12.818,0-23.324,7.041-23.324,17.966
	c0,7.881,3.572,13.869,14.499,20.278l5.359,3.151c8.194,4.833,9.141,8.721,9.141,12.608c0,6.304-4.833,11.349-12.818,11.349
	c-5.778,0-12.714-2.207-14.711-8.827c-0.524-1.575-0.84-3.467-0.84-4.623c0-0.629-0.105-1.471-0.945-1.471
	c-0.734,0-1.155,0.945-1.155,2.312c-0.105,1.471-0.526,7.04-0.526,11.873c0,1.996,0.317,2.416,1.787,3.046
	C406.869,153.798,412.544,154.323,417.901,154.323"/>
<path fill="#58AE33" d="M262.929,83.983c-0.3,10.029,4.076,20.965,13.066,30.591c-6.831-4.491-14.304-12.181-17.505-22.396
	c-3.957,0.734-9.465,0.325-12.151-2.514l11.391-5.299l-4.828,1.436c-5.987,1.593-10.667-1.387-12.854-5.287l18.575-3.47
	L247.36,77.54c-6.526,0.101-10.552-4.143-11.792-8.689l25.8,1.501l-21.285-3.488c-6.665-1.289-9.854-6.464-10.146-11.352
	l34.153,9.327l-26.586-9.176c-6.547-2.473-8.887-8.29-8.333-13.309l39.158,18.271l-31.349-17.82
	c-6.392-3.881-7.707-10.449-6.142-15.613l41.719,29.823l-34.778-28.538c-5.642-4.907-5.826-11.604-3.407-16.428l42.09,42.485
	l-34.13-37.783c-4.853-5.69-4.041-12.339-0.934-16.751l37.827,51.829l-7.317-12.328c-3.819-6.399-3.254-9.719,0.513-13.534
	l12.963,28.511C272.237,57.847,263.344,70.008,262.929,83.983"/>
<path fill="#602C8C" d="M291.828,159.917c11.976-13.104,1.246-30.033-11.572-42.997c-4.039-4.086-8.357-8.929-12.077-16.874
	c-9.963-21.285,1.146-46.504,25.898-46.504l16.716,0.006c0.721,0,1.421,0.374,1.81,1.043c0.579,0.999,0.238,2.278-0.762,2.858
	l-5.068,2.927c-0.726,0.42-1.095,1.065-1.095,1.9v7.199c0,0.996-0.244,2.009-0.695,2.896l-3.379,6.631
	c-0.188,0.369-0.238,0.583-0.238,0.996v8.433c0,1.961-0.838,3.71-2.357,4.947l-2.81,2.285c-1.105,0.899-2.423,1.382-3.762,1.439
	c-2.579,0.108-4.192-1.345-6.181-2.701c-0.94-0.589-1.264-1.82-0.714-2.799c0.484-0.864,0.714-1.196,0.549-2.211
	c-0.485-2.97-0.849-4.859-1.513-6.472c-0.649-1.578-1.666-3.063-3.485-5.283c-1.02-1.245-1.727-2.942-1.94-4.715
	c-0.157-1.275-0.055-2.619,0.369-3.894c0.441-1.329,1.222-2.556,2.407-3.526c1.224-1.001,2.862-1.724,4.985-1.98
	c1.147-0.137,2.188,0.685,2.325,1.834c0.135,1.148-0.687,2.19-1.835,2.326c-1.259,0.153-2.181,0.539-2.821,1.063
	c-0.543,0.446-0.899,0.998-1.096,1.593c-0.218,0.647-0.264,1.372-0.175,2.091c0.119,0.984,0.492,1.904,1.025,2.554
	c2.071,2.531,3.264,4.301,4.105,6.348c0.828,2.012,1.242,4.122,1.777,7.39c0.175,1.081,0.143,2.144-0.192,3.189
	c0.698,0.477,1.346,1.053,2.245,1.016c0.448-0.018,0.899-0.188,1.288-0.504l2.809-2.285c0.549-0.447,0.801-0.996,0.801-1.703V80
	c0-0.996,0.245-2.009,0.697-2.896l3.378-6.632c0.189-0.368,0.238-0.584,0.238-0.996v-7.198c0-1.736,0.658-3.332,1.895-4.541
	l-9.302-0.001c-3.922,0.001-7.25,0.749-9.997,2.06c-3.392,1.62-5.92,4.111-7.596,7.113c-1.704,3.053-2.551,6.662-2.551,10.456
	c0,4.028,0.958,8.246,2.857,12.223c1.195,2.506,2.719,4.767,4.41,6.907c6.029,7.625,10.23,13.478,16.274,21.496
	C312.342,137.714,305.557,153.18,291.828,159.917"/>
<path fill-rule="evenodd" clip-rule="evenodd" fill="#59AE33" d="M168.536,167.523h1.755h0.223v0.223v15.974h7.607h0.223v0.222
	v1.577v0.223h-0.223h-9.585h-0.223v-0.223v-17.772v-0.223H168.536z M143.669,178.99h7.809l-3.928-8.838L143.669,178.99z
	 M154.414,185.608l-2.051-4.596h-9.576l-2.026,4.596l-0.058,0.133h-0.146h-1.881h-0.344l0.141-0.314l8.008-17.771l0.06-0.133h0.144
	h1.831h0.143l0.06,0.133l8.009,17.771l0.143,0.314h-0.345h-1.907h-0.144L154.414,185.608z M127.271,171.516
	c-0.347-0.339-0.719-0.641-1.117-0.901h0c-0.399-0.264-0.826-0.49-1.279-0.68c-0.453-0.19-0.916-0.332-1.381-0.426
	c-0.465-0.094-0.943-0.142-1.432-0.142c-0.668,0-1.308,0.08-1.917,0.24h-0.001c-0.609,0.16-1.193,0.4-1.745,0.719v0.002
	c-0.556,0.32-1.056,0.702-1.494,1.138c-0.439,0.438-0.824,0.936-1.148,1.489c-0.323,0.552-0.565,1.135-0.728,1.741
	c-0.163,0.604-0.244,1.238-0.244,1.897c0,1.315,0.325,2.525,0.972,3.624l0,0c0.325,0.55,0.708,1.046,1.148,1.483
	c0.44,0.438,0.939,0.821,1.494,1.146c0.553,0.322,1.135,0.565,1.746,0.729c0.609,0.162,1.249,0.242,1.917,0.242
	c0.477,0,0.949-0.046,1.413-0.139c0.469-0.092,0.928-0.231,1.376-0.415c0.453-0.186,0.883-0.407,1.287-0.665
	c0.403-0.257,0.783-0.552,1.137-0.881l0.164-0.151l0.15,0.162l1.068,1.143l0.152,0.164l-0.165,0.153
	c-0.447,0.412-0.931,0.785-1.446,1.116c-0.517,0.328-1.065,0.614-1.644,0.856c-0.579,0.244-1.168,0.426-1.764,0.547
	c-0.597,0.121-1.2,0.183-1.805,0.183c-0.857,0-1.683-0.104-2.473-0.313c-0.789-0.207-1.546-0.521-2.267-0.938
	c-0.717-0.414-1.363-0.904-1.934-1.47c-0.571-0.564-1.068-1.203-1.488-1.915c-0.421-0.712-0.738-1.458-0.949-2.235
	c-0.21-0.776-0.316-1.588-0.316-2.428c0-1.685,0.426-3.231,1.279-4.641c0.423-0.7,0.926-1.332,1.5-1.891
	c0.575-0.558,1.225-1.045,1.949-1.455c0.725-0.412,1.485-0.723,2.276-0.929c0.792-0.204,1.618-0.309,2.475-0.309
	c0.615,0,1.221,0.059,1.816,0.173c0.592,0.114,1.177,0.287,1.749,0.518c0.573,0.229,1.112,0.504,1.614,0.823h-0.001
	c0.504,0.32,0.974,0.683,1.406,1.09l0.156,0.145l-0.138,0.162l-1.044,1.22l-0.153,0.181L127.271,171.516z M98.073,167.523h1.755
	h0.223v0.223v17.772v0.223h-0.223h-1.755H97.85v-0.223v-17.772v-0.223H98.073z M81.637,167.523h1.729h0.222v0.223v17.772v0.223
	h-0.222H81.51h-0.112l-0.067-0.092l-10.607-14.501v14.37v0.223H70.5h-1.754h-0.223v-0.223v-17.772v-0.223h0.223h1.856h0.112
	l0.067,0.092l10.632,14.503v-14.372v-0.223H81.637z M52.31,167.523h1.754h0.223v0.223v17.772v0.223h-0.223H52.31h-0.223v-0.223
	v-17.772v-0.223H52.31z M30.177,167.523h1.755h0.223v0.223v15.974h7.607h0.223v0.222v1.577v0.223h-0.223h-9.585h-0.222v-0.223
	v-17.772v-0.223H30.177z M16.026,171.516c-0.345-0.338-0.718-0.639-1.119-0.901c-0.398-0.264-0.825-0.49-1.277-0.68
	c-0.453-0.19-0.916-0.332-1.381-0.426c-0.466-0.094-0.944-0.142-1.433-0.142c-0.667,0-1.307,0.08-1.917,0.24h0
	c-0.608,0.16-1.191,0.4-1.747,0.721c-0.555,0.32-1.054,0.702-1.493,1.138c-0.44,0.438-0.824,0.936-1.147,1.489
	c-0.323,0.552-0.566,1.135-0.729,1.741c-0.162,0.604-0.244,1.238-0.244,1.897c0,1.315,0.326,2.525,0.973,3.624l0,0
	c0.324,0.55,0.707,1.046,1.147,1.483c0.44,0.438,0.939,0.821,1.494,1.146c0.552,0.322,1.136,0.565,1.746,0.729
	c0.609,0.162,1.25,0.242,1.917,0.242c0.478,0,0.949-0.046,1.414-0.139c0.468-0.092,0.927-0.231,1.376-0.415
	c0.452-0.186,0.883-0.407,1.286-0.665c0.402-0.257,0.783-0.552,1.137-0.881l0.165-0.151l0.15,0.162l1.067,1.143l0.152,0.164
	l-0.165,0.153c-0.448,0.414-0.932,0.787-1.447,1.116c-0.515,0.328-1.065,0.614-1.642,0.856c-0.58,0.244-1.169,0.426-1.763,0.547
	c-0.597,0.121-1.2,0.183-1.805,0.183c-0.858,0-1.683-0.104-2.473-0.313c-0.79-0.207-1.547-0.521-2.267-0.938
	c-0.718-0.414-1.364-0.904-1.936-1.47c-0.571-0.564-1.067-1.203-1.488-1.915c-0.421-0.712-0.738-1.458-0.949-2.235
	c-0.209-0.776-0.316-1.588-0.316-2.428c0-1.685,0.427-3.231,1.278-4.641c0.423-0.7,0.926-1.332,1.5-1.891
	c0.575-0.558,1.226-1.045,1.949-1.455c0.725-0.412,1.484-0.723,2.276-0.929c0.792-0.204,1.618-0.309,2.475-0.309
	c0.616,0,1.222,0.059,1.816,0.173c0.593,0.114,1.177,0.287,1.75,0.518c0.573,0.229,1.111,0.504,1.614,0.823l0,0
	c0.504,0.32,0.973,0.683,1.405,1.09l0.155,0.145l-0.138,0.162l-1.042,1.22l-0.153,0.181L16.026,171.516z"/>
<path fill-rule="evenodd" clip-rule="evenodd" fill="#58AE33" d="M440.725,167.523h1.729h0.223v0.223v17.772v0.223h-0.223h-1.855
	h-0.112l-0.068-0.092l-10.606-14.501v14.37v0.223h-0.222h-1.757h-0.221v-0.223v-17.772v-0.223h0.221h1.857h0.112l0.068,0.092
	l10.631,14.503v-14.372v-0.223H440.725z M405.627,169.393c-1.317,0-2.535,0.32-3.652,0.961c-0.561,0.322-1.063,0.7-1.507,1.137
	c-0.442,0.435-0.831,0.928-1.16,1.48c-0.326,0.547-0.573,1.126-0.737,1.73h-0.002c-0.163,0.6-0.245,1.231-0.245,1.893
	c0,0.658,0.082,1.292,0.247,1.899c0.164,0.61,0.411,1.194,0.737,1.75c0.329,0.559,0.718,1.062,1.16,1.504
	c0.443,0.439,0.947,0.825,1.508,1.15c0.558,0.323,1.142,0.567,1.75,0.729c0.606,0.163,1.242,0.243,1.901,0.243
	c1.3,0,2.504-0.323,3.611-0.971c0.554-0.326,1.055-0.711,1.496-1.152c0.442-0.444,0.831-0.945,1.158-1.504
	c0.327-0.556,0.576-1.14,0.739-1.75c0.164-0.606,0.245-1.241,0.245-1.899c0-0.657-0.081-1.289-0.245-1.895
	c-0.163-0.603-0.412-1.182-0.737-1.729c-0.329-0.551-0.716-1.046-1.157-1.48s-0.941-0.816-1.497-1.137
	c-0.554-0.32-1.135-0.561-1.736-0.721S406.277,169.393,405.627,169.393z M405.602,167.371c1.73,0,3.325,0.413,4.774,1.237
	c0.725,0.41,1.374,0.897,1.949,1.455c0.574,0.559,1.077,1.188,1.501,1.891c0.425,0.702,0.744,1.443,0.958,2.217
	c0.214,0.776,0.32,1.584,0.32,2.424s-0.107,1.651-0.32,2.43c-0.214,0.776-0.533,1.522-0.958,2.235
	c-0.424,0.71-0.925,1.349-1.501,1.913c-0.574,0.563-1.223,1.055-1.949,1.47c-0.724,0.418-1.486,0.731-2.28,0.938
	c-0.798,0.208-1.629,0.313-2.494,0.313c-0.866,0-1.697-0.104-2.493-0.313c-0.797-0.207-1.559-0.521-2.282-0.938
	c-0.725-0.415-1.377-0.906-1.951-1.47c-0.574-0.564-1.074-1.203-1.499-1.913c-0.424-0.713-0.744-1.459-0.957-2.235
	c-0.213-0.778-0.32-1.59-0.32-2.43s0.107-1.648,0.32-2.424s0.533-1.515,0.957-2.217c0.425-0.702,0.925-1.332,1.501-1.891
	c0.574-0.558,1.225-1.045,1.949-1.455C402.275,167.784,403.868,167.371,405.602,167.371z M381.612,167.523h1.755h0.224v0.223v17.772
	v0.223h-0.224h-1.755h-0.221v-0.223v-17.772v-0.223H381.612z M355.947,167.498h13.5h0.223v0.223v1.602v0.223h-0.223h-5.649v15.974
	v0.223h-0.223h-1.755h-0.224v-0.223v-15.974h-5.649h-0.223v-0.223v-1.602v-0.223H355.947z M335.249,178.99h7.809l-3.928-8.838
	L335.249,178.99z M345.993,185.608l-2.051-4.596h-9.576l-2.025,4.596l-0.06,0.133h-0.146h-1.881h-0.344l0.142-0.314l8.009-17.771
	l0.058-0.133h0.145h1.83h0.145l0.06,0.133l8.009,17.771l0.142,0.314h-0.344h-1.906h-0.146L345.993,185.608z M310.589,167.523h1.755
	h0.223v0.223v15.974h7.608h0.224v0.222v1.577v0.223h-0.224h-9.586h-0.222v-0.223v-17.772v-0.223H310.589z M283.569,178.296
	c0,0.891,0.121,1.682,0.359,2.37c0.237,0.68,0.593,1.264,1.065,1.747c0.946,0.972,2.271,1.457,3.973,1.457
	c1.7,0,3.019-0.485,3.957-1.457c0.469-0.483,0.821-1.067,1.057-1.747c0.236-0.688,0.355-1.478,0.355-2.37V167.72v-0.223h0.224h1.755
	h0.222v0.223v10.576c0,2.366-0.67,4.225-2.011,5.572c-0.671,0.677-1.474,1.185-2.405,1.521c-0.926,0.336-1.979,0.503-3.153,0.503
	c-1.178,0-2.232-0.167-3.159-0.503c-0.934-0.337-1.739-0.845-2.414-1.52h-0.001c-0.673-0.675-1.183-1.482-1.52-2.414
	c-0.336-0.929-0.503-1.981-0.503-3.16V167.72v-0.223h0.222h1.756h0.222v0.223V178.296z M249.087,167.498h2.188h0.134l0.062,0.12
	l6.769,12.969l6.693-12.969l0.063-0.12h0.136h2.187h0.223v0.223v17.798v0.223h-0.223h-1.627h-0.224v-0.223l-0.022-14.446
	l-6.549,12.641l-0.063,0.121h-0.135h-0.966h-0.137l-0.061-0.12l-6.571-12.641v14.445v0.223h-0.223h-1.654h-0.222v-0.223V167.72
	v-0.223H249.087z M232.651,167.523h1.754h0.223v0.223v17.772v0.223h-0.223h-1.754h-0.223v-0.223v-17.772v-0.223H232.651z
	 M217.851,170.833c-0.353-0.221-0.727-0.419-1.116-0.591c-0.388-0.172-0.795-0.318-1.217-0.438c-0.42-0.119-0.831-0.21-1.231-0.271
	c-0.396-0.06-0.78-0.09-1.149-0.09c-0.594,0-1.126,0.06-1.596,0.175c-0.464,0.114-0.872,0.287-1.219,0.514
	c-0.337,0.221-0.591,0.48-0.757,0.776c-0.166,0.295-0.248,0.631-0.248,1.007c0,0.673,0.186,1.218,0.555,1.632v0.002
	c0.191,0.217,0.408,0.41,0.643,0.581c0.237,0.17,0.497,0.318,0.78,0.443h0c0.286,0.127,0.633,0.264,1.04,0.408v0.002
	c0.394,0.142,0.853,0.295,1.373,0.458c0.601,0.176,1.15,0.356,1.644,0.535c0.492,0.177,0.928,0.356,1.3,0.531
	c0.383,0.181,0.74,0.404,1.067,0.666c0.326,0.263,0.625,0.567,0.894,0.91c0.549,0.702,0.823,1.622,0.823,2.757
	c0,0.495-0.07,0.966-0.211,1.408c-0.14,0.443-0.353,0.857-0.634,1.24c-0.278,0.38-0.615,0.721-1.008,1.016
	c-0.389,0.291-0.835,0.543-1.336,0.75c-0.498,0.204-1.033,0.357-1.602,0.46c-0.571,0.102-1.176,0.153-1.813,0.153
	c-1.266,0-2.502-0.253-3.708-0.755c-0.601-0.251-1.161-0.544-1.678-0.876c-0.517-0.334-0.995-0.71-1.428-1.126l-0.124-0.121
	l0.083-0.148l0.813-1.449l0.142-0.252l0.207,0.202c0.388,0.378,0.809,0.718,1.259,1.016c0.449,0.296,0.933,0.554,1.443,0.769
	c0.512,0.214,1.022,0.376,1.524,0.483c0.501,0.105,0.999,0.16,1.492,0.16c0.661,0,1.252-0.066,1.77-0.199v-0.002
	c0.511-0.129,0.958-0.325,1.333-0.586c0.369-0.256,0.646-0.552,0.826-0.891l0,0c0.182-0.336,0.273-0.721,0.273-1.15
	c0-0.351-0.047-0.668-0.141-0.947c-0.092-0.275-0.232-0.524-0.417-0.739c-0.193-0.225-0.407-0.423-0.642-0.595h-0.001
	c-0.236-0.172-0.496-0.318-0.776-0.438c-0.288-0.124-0.642-0.261-1.058-0.409c-0.415-0.149-0.888-0.307-1.414-0.475l0,0
	c-0.602-0.187-1.148-0.368-1.636-0.546c-0.496-0.181-0.927-0.354-1.288-0.518v-0.002c-0.38-0.172-0.734-0.388-1.057-0.644
	c-0.32-0.256-0.616-0.556-0.881-0.896c-0.272-0.348-0.477-0.749-0.611-1.201c-0.134-0.444-0.2-0.943-0.2-1.49
	c0-0.471,0.067-0.917,0.202-1.332c0.135-0.418,0.337-0.808,0.606-1.166c0.267-0.355,0.589-0.673,0.961-0.945
	c0.37-0.271,0.794-0.501,1.27-0.691c0.473-0.188,0.982-0.329,1.527-0.423c0.542-0.094,1.121-0.14,1.734-0.14
	c0.493,0,0.989,0.038,1.484,0.111c0.493,0.071,0.991,0.184,1.49,0.33c0.496,0.146,0.964,0.317,1.403,0.511
	c0.438,0.196,0.851,0.416,1.234,0.66l0.17,0.108l-0.092,0.179l-0.762,1.501l-0.11,0.217L217.851,170.833z"/>
</svg>
