<svg width="209" height="99" viewBox="0 0 209 99" fill="none" xmlns="http://www.w3.org/2000/svg">
<g clip-path="url(#clip0_5005_6957)">
<path fill-rule="evenodd" clip-rule="evenodd" d="M4.3759 59.5389C4.3759 63.3738 4.3759 66.6681 4.17934 68.4386C4.03192 69.6681 3.78574 70.4553 2.9012 70.6518C2.50807 70.7501 2.01619 70.7993 1.37689 70.7993C0.835868 70.7993 0.688912 71.0445 0.688912 71.2415C0.688912 71.5369 0.983759 71.6843 1.52431 71.6843C3.24566 71.6843 5.99943 71.5369 6.98273 71.5369C8.11391 71.5369 11.1621 71.6843 14.0633 71.6843C14.5055 71.6843 14.85 71.5369 14.85 71.2415C14.85 71.0445 14.6534 70.7993 14.162 70.7993C13.5227 70.7993 12.5886 70.7501 11.9488 70.6518C10.6702 70.4553 10.4249 69.6681 10.2771 68.4882C10.0805 66.6686 10.0805 63.3743 10.0805 59.5394V42.9676C10.0805 42.5248 10.1788 42.2791 10.4249 42.1804C10.8181 42.0334 11.6544 41.9838 12.2932 41.9838C13.277 41.9838 15.047 42.1804 16.6205 43.5573C19.0298 45.6231 19.1772 48.3764 19.1772 49.7533C19.1772 54.0309 15.7841 56.5394 13.3748 56.5394C12.4407 56.5394 11.9488 56.7355 11.9488 57.08C11.9488 57.3748 12.2441 57.5223 12.4903 57.5223C12.6864 57.5714 13.5714 57.5714 13.7684 57.5714C19.9153 57.5714 24.6352 53.3425 24.6352 47.4413C24.6352 45.1794 23.4062 43.3111 22.4715 42.4261C21.7831 41.8355 19.8161 40.0659 14.4073 40.0659C12.4407 40.0659 8.99845 40.1637 7.22843 40.1637C5.99943 40.1637 3.24612 40.0659 0.984227 40.0659C0.343988 40.0664 0 40.1647 0 40.46C0 40.7548 0.294379 40.9023 0.737117 40.9023C1.37689 40.9023 2.11401 40.9514 2.45846 41.0492C3.83488 41.4428 4.22848 41.8851 4.32676 43.3116C4.3759 44.6389 4.3759 45.8196 4.3759 52.1631V59.5389Z" fill="#6F6F70"/>
<path fill-rule="evenodd" clip-rule="evenodd" d="M32.476 59.5389C32.476 63.3738 32.476 66.6682 32.2794 68.4386C32.1315 69.6681 31.8863 70.4553 31.0013 70.6519C30.6077 70.7502 30.1158 70.7993 29.477 70.7993C28.9359 70.7993 28.7885 71.0445 28.7885 71.2416C28.7885 71.5369 29.0834 71.6843 29.6244 71.6843C30.5094 71.6843 31.591 71.6347 32.6239 71.586C33.6563 71.586 34.5909 71.5369 35.0823 71.5369C36.3609 71.5369 37.9835 71.586 40.098 71.6347C42.2125 71.733 44.8188 71.7821 48.064 71.7821C49.6866 71.7821 50.0802 71.7821 50.3751 70.7001C50.6208 69.8647 50.9648 67.0121 50.9648 66.078C50.9648 65.6357 50.9161 65.0947 50.5716 65.0947C50.2768 65.0947 50.1785 65.2908 50.0797 65.7331C49.7849 67.4549 49.293 68.3394 48.211 68.8313C47.0803 69.3227 45.2611 69.3719 44.1299 69.3719C39.7039 69.3719 38.3771 68.7326 38.2784 65.8814C38.2292 64.651 38.2784 61.111 38.2784 59.6854V56.3415C38.2784 56.0953 38.3271 55.8992 38.5236 55.8992C39.6057 55.8992 44.5226 55.997 45.3098 56.0953C46.9324 56.2432 47.4734 56.8825 47.7191 57.7188C47.8169 58.2589 47.8169 58.8 47.8665 59.2432C47.8665 59.4393 47.9648 59.5867 48.2596 59.5867C48.6528 59.5867 48.7024 58.9965 48.7024 58.6521C48.7024 58.3582 48.8007 56.6859 48.899 55.8496C49.1447 53.7351 49.2434 53.0476 49.2434 52.8005C49.2434 52.5553 49.0955 52.3582 48.899 52.3582C48.7024 52.3582 48.5545 52.6044 48.2105 52.8997C47.7682 53.2929 47.1781 53.4403 46.1456 53.539C45.1619 53.6369 39.5565 53.6369 38.5728 53.6369C38.3271 53.6369 38.2784 53.4403 38.2784 53.1946V42.8693C38.2784 42.6231 38.3767 42.4762 38.5728 42.4762C39.4578 42.4762 44.6213 42.574 45.3589 42.6728C47.523 42.8693 47.867 43.4595 48.211 44.1966C48.4567 44.6885 48.5058 45.4261 48.5058 45.7209C48.5058 46.0654 48.555 46.2619 48.8503 46.2619C49.1943 46.2619 49.293 45.7705 49.3417 45.5735C49.4395 45.0821 49.5383 43.2625 49.5879 42.8202C49.6861 40.9027 49.9319 40.4109 49.9319 40.1155C49.9319 39.919 49.8827 39.7224 49.637 39.7224C49.44 39.7224 49.1947 39.8703 48.9486 39.919C48.6046 39.9681 47.9161 40.1155 47.1294 40.1647C46.2931 40.2138 36.7049 40.1647 35.3285 40.1647C34.099 40.1647 31.3453 40.0669 29.0834 40.0669C28.4441 40.0669 28.0996 40.1647 28.0996 40.4605C28.0996 40.7553 28.3945 40.9027 28.8372 40.9027C29.4765 40.9027 30.2141 40.9519 30.5581 41.0497C31.935 41.4433 32.3286 41.8856 32.4268 43.3121C32.476 44.6389 32.476 45.8197 32.476 52.1631V59.5389Z" fill="#6F6F70"/>
<path fill-rule="evenodd" clip-rule="evenodd" d="M87.4458 64.2589C87.4458 62.194 87.4458 60.5218 87.4949 59.2437C87.5441 57.768 87.9863 57.1779 89.1667 56.9818C89.6581 56.883 90.0025 56.8344 90.3465 56.8344C90.6414 56.8344 90.8875 56.6373 90.8875 56.3921C90.8875 56.0476 90.5922 55.998 90.0021 55.998C88.5765 55.998 86.3141 56.0963 84.9377 56.0963C83.6591 56.0963 80.5613 55.998 78.299 55.998C77.7093 55.998 77.3648 56.0472 77.3648 56.3921C77.3648 56.6373 77.6597 56.8344 78.0533 56.8344C78.6434 56.8344 79.3805 56.883 79.7245 56.9818C81.1014 57.3749 81.5442 57.8172 81.5933 59.2437C81.6424 60.5214 81.6424 62.0957 81.6424 64.1606V67.996C81.6424 68.7331 81.4454 69.1758 80.8066 69.4716C79.7741 69.9139 78.8891 69.9139 77.7575 69.9139C68.5133 69.9139 62.7105 63.3734 62.7105 54.375C62.7105 49.261 64.2844 46.1632 66.6942 44.1962C69.6936 41.7873 72.6931 41.7377 75.0528 41.7377C79.9211 41.7377 83.1667 43.606 84.4454 44.9342C85.5761 46.1141 85.8218 47.4418 85.9201 48.376C85.9692 48.7205 86.067 48.9165 86.3628 48.9165C86.7068 48.9165 86.953 48.6217 86.953 47.9829C86.953 42.721 87.2478 41.5903 87.2478 41.0984C87.2478 40.8036 87.1495 40.6562 86.6576 40.6065C85.6247 40.5579 84.1004 40.3122 83.2159 40.1643C82.3309 39.9677 78.5447 39.4758 75.5447 39.4758C71.9059 39.4758 68.0214 39.7711 63.8908 42.1805C59.908 44.492 56.3184 49.1632 56.3184 55.8501C56.3184 67.4058 65.7104 72.2244 76.3319 72.2244C79.7245 72.2244 84.0026 71.7822 86.9034 70.3566C87.4448 70.0618 87.4448 70.0121 87.4448 68.881V64.2589H87.4458Z" fill="#6F6F70"/>
<path fill-rule="evenodd" clip-rule="evenodd" d="M103.261 58.8006C103.113 58.8006 103.015 58.7027 103.113 58.5062L107.293 48.0817C107.342 47.9343 107.392 47.6881 107.539 47.6881C107.637 47.6881 107.687 47.9343 107.735 48.0817L111.817 58.5553C111.866 58.7027 111.817 58.8006 111.621 58.8006H103.261ZM112.555 61.1121C112.751 61.1121 112.898 61.1617 112.997 61.4074L116.341 69.8653C116.538 70.3572 116.242 70.7503 115.947 70.7994C115.505 70.8481 115.406 70.9955 115.406 71.2417C115.406 71.537 115.898 71.537 116.685 71.5861C120.323 71.6844 123.471 71.6844 124.995 71.6844C126.618 71.6844 126.863 71.5862 126.863 71.2417C126.863 70.9468 126.666 70.7994 126.273 70.7994C125.781 70.7994 125.29 70.7503 124.651 70.652C123.863 70.505 122.635 69.9631 120.962 66.1769C118.209 59.8339 110.98 42.9186 109.948 40.6071C109.506 39.6729 109.309 39.2803 108.669 39.2803C108.227 39.2803 107.883 39.7717 107.391 40.952L96.0813 67.0628C95.1963 69.1764 94.4587 70.4554 92.4922 70.7503C92.0986 70.7503 91.6072 70.7994 91.2136 70.7994C90.8696 70.7994 90.7217 70.9955 90.7217 71.2417C90.7217 71.5862 90.9679 71.6844 91.5093 71.6844C93.7708 71.6844 96.0818 71.537 96.5245 71.537C97.9014 71.537 99.9176 71.6844 101.343 71.6844C101.786 71.6844 102.032 71.5862 102.032 71.2417C102.032 70.9955 101.933 70.7994 101.393 70.7994H100.753C99.4253 70.7994 99.0322 70.3572 99.0322 69.6191C99.0322 69.1277 99.2287 68.0953 99.6715 67.0628L101.982 61.4074C102.081 61.1621 102.13 61.1121 102.376 61.1121H112.555Z" fill="#6F6F70"/>
<path fill-rule="evenodd" clip-rule="evenodd" d="M151.43 58.3095C151.43 64.3576 153.151 67.4554 155.364 69.3728C158.511 72.1271 162.985 72.2249 165.247 72.2249C168.049 72.2249 171.344 71.7826 174.393 69.2259C178.031 66.2264 178.523 61.309 178.523 56.6378V52.1631C178.523 45.8197 178.572 44.6394 178.622 43.3121C178.72 41.8364 179.015 41.2467 180.195 41.0497C180.736 40.9519 180.982 40.9028 181.474 40.9028C181.965 40.9028 182.211 40.7553 182.211 40.4605C182.211 40.1652 181.916 40.0669 181.326 40.0669C179.654 40.0669 176.753 40.1647 176.261 40.1647C176.212 40.1647 173.31 40.0669 171.098 40.0669C170.508 40.0669 170.213 40.1647 170.213 40.4605C170.213 40.7553 170.458 40.9028 170.95 40.9028C171.442 40.9028 172.18 40.9519 172.523 41.0497C173.9 41.4433 174.245 41.8856 174.343 43.3121C174.392 44.6389 174.441 45.8197 174.441 52.1631V57.4245C174.441 61.7021 174.343 65.3409 171.934 67.6028C170.213 69.275 168 69.8156 166.132 69.8156C164.657 69.8156 162.591 69.6686 160.673 68.1438C158.559 66.4721 157.379 64.1119 157.379 58.0147V52.1631C157.379 45.8197 157.379 44.6394 157.477 43.3121C157.576 41.8364 157.92 41.2467 159.051 41.0497C159.591 40.9519 159.838 40.9028 160.328 40.9028C160.771 40.9028 161.018 40.7553 161.018 40.4605C161.018 40.1652 160.723 40.0669 160.083 40.0669C158.51 40.0669 155.609 40.1647 154.527 40.1647C153.248 40.1647 150.347 40.0669 148.036 40.0669C147.397 40.0669 147.102 40.1647 147.102 40.4605C147.102 40.7553 147.348 40.9028 147.84 40.9028C148.43 40.9028 149.167 40.9519 149.512 41.0497C150.889 41.4433 151.282 41.8364 151.38 43.3121C151.478 44.6389 151.429 45.8197 151.429 52.1631V58.3095H151.43Z" fill="#6F6F70"/>
<path fill-rule="evenodd" clip-rule="evenodd" d="M195.581 72.2249C197.892 72.2249 200.744 71.9797 202.81 70.5045C205.956 68.2913 207.136 65.7832 207.136 62.685C207.136 58.8992 205.366 55.7032 199.662 52.5558L197.892 51.5725C194.007 49.4089 193.319 47.9337 193.319 46.065C193.319 43.2129 196.122 41.5903 199.22 41.5903C202.022 41.5903 203.4 42.7702 204.039 43.5569C204.972 44.6385 205.169 45.9171 205.169 46.3107C205.169 46.8025 205.317 47.0487 205.612 47.0487C205.956 47.0487 206.153 46.606 206.153 45.721C206.153 42.4266 206.3 41.2463 206.3 40.7053C206.3 40.4104 206.103 40.263 205.71 40.1643C204.579 39.8699 202.366 39.4758 199.563 39.4758C193.564 39.4758 188.647 42.7711 188.647 47.8841C188.647 51.5725 190.319 54.375 195.433 57.3744L197.941 58.8491C201.776 61.111 202.219 62.9307 202.219 64.7498C202.219 67.7002 199.957 70.0613 196.22 70.0613C193.516 70.0613 190.27 69.0284 189.335 65.9302C189.09 65.193 188.942 64.3076 188.942 63.7665C188.942 63.4722 188.893 63.0781 188.5 63.0781C188.156 63.0781 187.959 63.5204 187.959 64.1601C187.91 64.8486 187.713 67.4549 187.713 69.7168C187.713 70.651 187.861 70.8475 188.549 71.1424C190.418 71.9792 193.074 72.2249 195.581 72.2249Z" fill="#6F6F70"/>
<path d="M123.053 39.305C122.912 43.9987 124.96 49.1168 129.168 53.6219C125.971 51.5201 122.473 47.9211 120.975 43.1403C119.123 43.4838 116.545 43.2924 115.288 41.9637L120.619 39.4838L118.36 40.1558C115.558 40.9014 113.368 39.5067 112.344 37.6814L121.037 36.0574L115.766 36.2896C112.712 36.3368 110.828 34.3506 110.247 32.223L122.322 32.9255L112.36 31.2931C109.241 30.6898 107.749 28.2679 107.612 25.9802L123.596 30.3454L111.153 26.0509C108.089 24.8935 106.994 22.1711 107.254 19.8221L125.58 28.3732L110.908 20.0332C107.917 18.2169 107.301 15.143 108.034 12.7262L127.559 26.6837L111.282 13.3276C108.642 11.031 108.556 7.89675 109.688 5.63907L129.386 25.5225L113.413 7.83965C111.142 5.17667 111.522 2.06487 112.976 0L130.679 24.2565L127.255 18.4869C125.468 15.4921 125.732 13.9383 127.495 12.1528L133.562 25.4963C127.409 27.073 123.247 32.7645 123.053 39.305Z" fill="#58AE33"/>
<path d="M136.578 74.8429C142.183 68.7101 137.161 60.7871 131.162 54.7198C129.272 52.8075 127.251 50.541 125.51 46.8226C120.847 36.861 126.046 25.0582 137.631 25.0582L145.454 25.061C145.791 25.061 146.119 25.2361 146.301 25.5492C146.572 26.0167 146.412 26.6153 145.944 26.8867L143.573 28.2566C143.233 28.4532 143.06 28.755 143.06 29.1458V32.515C143.06 32.9812 142.946 33.4553 142.735 33.8704L141.153 36.9738C141.065 37.1465 141.042 37.2466 141.042 37.4399V41.3867C141.042 42.3044 140.65 43.123 139.939 43.7019L138.624 44.7713C138.107 45.1921 137.49 45.4181 136.863 45.4448C135.656 45.4953 134.901 44.8153 133.97 44.1807C133.53 43.905 133.379 43.3289 133.636 42.8707C133.863 42.4664 133.97 42.311 133.893 41.836C133.666 40.446 133.496 39.5619 133.185 38.807C132.881 38.0685 132.405 37.3735 131.554 36.3345C131.077 35.7518 130.746 34.9576 130.646 34.1278C130.573 33.5311 130.62 32.9021 130.819 32.3054C131.025 31.6834 131.391 31.1091 131.945 30.6552C132.518 30.1867 133.285 29.8483 134.278 29.7285C134.815 29.6644 135.302 30.0491 135.366 30.5868C135.43 31.1241 135.045 31.6118 134.508 31.6754C133.918 31.747 133.487 31.9277 133.187 32.1729C132.933 32.3817 132.767 32.64 132.674 32.9185C132.572 33.2213 132.551 33.5606 132.593 33.8971C132.648 34.3576 132.823 34.7882 133.072 35.0924C134.042 36.2769 134.6 37.1053 134.993 38.0633C135.381 39.005 135.575 39.9925 135.825 41.5219C135.907 42.0278 135.892 42.5253 135.735 43.0144C136.062 43.2376 136.365 43.5072 136.786 43.4899C136.996 43.4815 137.207 43.4019 137.389 43.254L138.703 42.1846C138.96 41.9754 139.078 41.7185 139.078 41.3876V37.4409C139.078 36.9747 139.193 36.5006 139.404 36.0855L140.985 32.9817C141.074 32.8094 141.097 32.7083 141.097 32.5155V29.1468C141.097 28.3343 141.405 27.5874 141.984 27.0215L137.63 27.0211C135.795 27.0215 134.237 27.3716 132.952 27.9852C131.364 28.7433 130.181 29.9092 129.397 31.3141C128.599 32.743 128.203 34.432 128.203 36.2077C128.203 38.0928 128.651 40.0669 129.54 41.9282C130.099 43.101 130.812 44.1592 131.604 45.1607C134.425 48.7293 136.391 51.4686 139.22 55.2211C146.179 64.4517 143.003 71.6899 136.578 74.8429Z" fill="#602C8C"/>
<path d="M3.913 91.129V94.121C3.913 96.297 3.913 97.47 4.27 97.776C4.559 98.031 5.001 98.15 6.327 98.15C7.228 98.15 7.891 98.133 8.316 97.674C8.52 97.453 8.724 96.977 8.758 96.654C8.775 96.501 8.809 96.399 8.945 96.399C9.064 96.399 9.081 96.484 9.081 96.688C9.081 96.875 8.962 98.15 8.826 98.643C8.724 99.017 8.639 99.102 7.755 99.102C6.531 99.102 5.647 99.068 4.882 99.051C4.117 99.017 3.505 99 2.808 99C2.621 99 2.247 99 1.839 99.017C1.448 99.017 1.006 99.051 0.666 99.051C0.445 99.051 0.326 99 0.326 98.881C0.326 98.796 0.394 98.745 0.598 98.745C0.853 98.745 1.057 98.711 1.21 98.677C1.55 98.609 1.635 98.235 1.703 97.742C1.788 97.028 1.788 95.685 1.788 94.121V91.129C1.788 88.545 1.788 88.069 1.754 87.525C1.72 86.947 1.584 86.675 1.023 86.556C0.887 86.522 0.683 86.505 0.462 86.505C0.275 86.505 0.173 86.471 0.173 86.352C0.173 86.233 0.292 86.199 0.547 86.199C1.346 86.199 2.417 86.25 2.876 86.25C3.284 86.25 4.525 86.199 5.188 86.199C5.426 86.199 5.545 86.233 5.545 86.352C5.545 86.471 5.443 86.505 5.239 86.505C5.052 86.505 4.78 86.522 4.576 86.556C4.117 86.641 3.981 86.93 3.947 87.525C3.913 88.069 3.913 88.545 3.913 91.129ZM12.081 94.121V91.129C12.081 88.545 12.081 88.069 12.047 87.525C12.013 86.947 11.877 86.675 11.316 86.556C11.18 86.522 10.891 86.505 10.653 86.505C10.466 86.505 10.364 86.471 10.364 86.352C10.364 86.233 10.483 86.199 10.738 86.199C11.197 86.199 11.69 86.216 12.115 86.216C12.557 86.233 12.948 86.25 13.186 86.25C13.73 86.25 17.113 86.25 17.436 86.233C17.759 86.199 18.031 86.165 18.167 86.131C18.252 86.114 18.354 86.063 18.439 86.063C18.524 86.063 18.541 86.131 18.541 86.216C18.541 86.335 18.456 86.539 18.405 87.321C18.388 87.491 18.354 88.239 18.32 88.443C18.303 88.528 18.269 88.63 18.15 88.63C18.031 88.63 17.997 88.545 17.997 88.392C17.997 88.273 17.98 87.984 17.895 87.78C17.776 87.474 17.606 87.27 16.756 87.168C16.467 87.134 14.682 87.1 14.342 87.1C14.257 87.1 14.223 87.151 14.223 87.27V91.571C14.223 91.69 14.24 91.758 14.342 91.758C14.716 91.758 16.671 91.758 17.062 91.724C17.47 91.69 17.725 91.639 17.878 91.469C17.997 91.333 18.065 91.248 18.15 91.248C18.218 91.248 18.269 91.282 18.269 91.384C18.269 91.486 18.201 91.758 18.133 92.625C18.116 92.965 18.065 93.645 18.065 93.764C18.065 93.9 18.065 94.087 17.912 94.087C17.793 94.087 17.759 94.019 17.759 93.934C17.742 93.764 17.742 93.543 17.691 93.322C17.606 92.982 17.368 92.727 16.739 92.659C16.416 92.625 14.733 92.608 14.325 92.608C14.24 92.608 14.223 92.676 14.223 92.778V94.121C14.223 94.699 14.206 96.263 14.223 96.756C14.257 97.929 14.529 98.184 16.263 98.184C16.705 98.184 17.419 98.184 17.861 97.98C18.303 97.776 18.507 97.419 18.626 96.722C18.66 96.535 18.694 96.467 18.813 96.467C18.949 96.467 18.949 96.603 18.949 96.773C18.949 97.164 18.813 98.32 18.728 98.66C18.609 99.102 18.456 99.102 17.81 99.102C16.535 99.102 15.6 99.068 14.869 99.051C14.138 99.017 13.611 99 13.101 99C12.914 99 12.54 99 12.132 99.017C11.741 99.017 11.299 99.051 10.959 99.051C10.738 99.051 10.619 99 10.619 98.881C10.619 98.796 10.687 98.745 10.891 98.745C11.146 98.745 11.35 98.711 11.503 98.677C11.843 98.609 11.928 98.235 11.996 97.742C12.081 97.028 12.081 95.685 12.081 94.121ZM27.2932 94.614H23.5022C23.4172 94.614 23.3832 94.648 23.3492 94.75L22.4312 97.181C22.2612 97.606 22.1762 98.014 22.1762 98.218C22.1762 98.524 22.3292 98.745 22.8562 98.745H23.1112C23.3152 98.745 23.3662 98.779 23.3662 98.881C23.3662 99.017 23.2642 99.051 23.0772 99.051C22.5332 99.051 21.8022 99 21.2752 99C21.0882 99 20.1532 99.051 19.2692 99.051C19.0482 99.051 18.9462 99.017 18.9462 98.881C18.9462 98.779 19.0142 98.745 19.1502 98.745C19.3032 98.745 19.5412 98.728 19.6772 98.711C20.4592 98.609 20.7822 98.031 21.1222 97.181L25.3892 86.505C25.5932 86.012 25.6952 85.825 25.8652 85.825C26.0182 85.825 26.1202 85.978 26.2902 86.369C26.6982 87.304 29.4182 94.24 30.5062 96.824C31.1522 98.354 31.6452 98.592 32.0022 98.677C32.2572 98.728 32.5122 98.745 32.7162 98.745C32.8522 98.745 32.9372 98.762 32.9372 98.881C32.9372 99.017 32.7842 99.051 32.1552 99.051C31.5432 99.051 30.3022 99.051 28.9422 99.017C28.6362 99 28.4322 99 28.4322 98.881C28.4322 98.779 28.5002 98.745 28.6702 98.728C28.7892 98.694 28.9082 98.541 28.8232 98.337L27.4632 94.733C27.4292 94.648 27.3782 94.614 27.2932 94.614ZM23.8422 93.764H26.9702C27.0552 93.764 27.0722 93.713 27.0552 93.662L25.5252 89.463C25.5082 89.395 25.4912 89.31 25.4402 89.31C25.3892 89.31 25.3552 89.395 25.3382 89.463L23.7742 93.645C23.7572 93.713 23.7742 93.764 23.8422 93.764ZM34.7255 94.121V91.129C34.7255 88.545 34.7255 88.069 34.6915 87.525C34.6575 86.947 34.5215 86.675 33.9605 86.556C33.8245 86.522 33.5355 86.505 33.2975 86.505C33.1105 86.505 33.0085 86.471 33.0085 86.352C33.0085 86.233 33.1275 86.199 33.3825 86.199C34.2835 86.199 35.3545 86.25 35.7115 86.25C36.2895 86.25 37.5815 86.199 38.1085 86.199C39.1795 86.199 40.3185 86.301 41.2365 86.93C41.7125 87.253 42.3925 88.12 42.3925 89.259C42.3925 90.517 41.8655 91.673 40.1485 93.067C41.6615 94.971 42.8345 96.484 43.8375 97.538C44.7895 98.524 45.4865 98.643 45.7415 98.694C45.9285 98.728 46.0815 98.745 46.2175 98.745C46.3535 98.745 46.4215 98.796 46.4215 98.881C46.4215 99.017 46.3025 99.051 46.0985 99.051H44.4835C43.5315 99.051 43.1065 98.966 42.6645 98.728C41.9335 98.337 41.2875 97.538 40.3355 96.229C39.6555 95.294 38.8735 94.138 38.6525 93.883C38.5675 93.781 38.4655 93.764 38.3465 93.764L36.8675 93.73C36.7825 93.73 36.7315 93.764 36.7315 93.866V94.104C36.7315 95.685 36.7315 97.028 36.8165 97.742C36.8675 98.235 36.9695 98.609 37.4795 98.677C37.7345 98.711 38.1085 98.745 38.3125 98.745C38.4485 98.745 38.5165 98.796 38.5165 98.881C38.5165 99 38.3975 99.051 38.1765 99.051C37.1905 99.051 35.9325 99 35.6775 99C35.3545 99 34.2835 99.051 33.6035 99.051C33.3825 99.051 33.2635 99 33.2635 98.881C33.2635 98.796 33.3315 98.745 33.5355 98.745C33.7905 98.745 33.9945 98.711 34.1475 98.677C34.4875 98.609 34.5725 98.235 34.6405 97.742C34.7255 97.028 34.7255 95.685 34.7255 94.121ZM36.7315 87.304V92.472C36.7315 92.659 36.7655 92.727 36.8845 92.778C37.2415 92.897 37.7515 92.948 38.1765 92.948C38.8565 92.948 39.0775 92.88 39.3835 92.659C39.8935 92.285 40.3865 91.503 40.3865 90.109C40.3865 87.695 38.7885 86.998 37.7855 86.998C37.3605 86.998 37.0545 87.015 36.8845 87.066C36.7655 87.1 36.7315 87.168 36.7315 87.304ZM48.3235 89.599L48.5105 96.739C48.5445 98.065 48.7655 98.507 49.1055 98.626C49.3945 98.728 49.7175 98.745 49.9895 98.745C50.1765 98.745 50.2785 98.779 50.2785 98.881C50.2785 99.017 50.1255 99.051 49.8875 99.051C48.7825 99.051 48.1025 99 47.7795 99C47.6265 99 46.8275 99.051 45.9435 99.051C45.7225 99.051 45.5695 99.034 45.5695 98.881C45.5695 98.779 45.6715 98.745 45.8415 98.745C46.0625 98.745 46.3685 98.728 46.6065 98.66C47.0485 98.524 47.1165 98.031 47.1335 96.552L47.2865 86.488C47.2865 86.148 47.3375 85.91 47.5075 85.91C47.6945 85.91 47.8475 86.131 48.1365 86.437C48.3405 86.658 50.9245 89.429 53.4065 91.894C54.5625 93.05 56.8575 95.498 57.1465 95.77H57.2315L57.0615 88.137C57.0445 87.1 56.8915 86.777 56.4835 86.607C56.2285 86.505 55.8205 86.505 55.5825 86.505C55.3785 86.505 55.3105 86.454 55.3105 86.352C55.3105 86.216 55.4975 86.199 55.7525 86.199C56.6365 86.199 57.4525 86.25 57.8095 86.25C57.9965 86.25 58.6425 86.199 59.4755 86.199C59.6965 86.199 59.8665 86.216 59.8665 86.352C59.8665 86.454 59.7645 86.505 59.5605 86.505C59.3905 86.505 59.2545 86.505 59.0505 86.556C58.5745 86.692 58.4385 87.049 58.4215 88.001L58.2345 98.728C58.2345 99.102 58.1665 99.255 58.0135 99.255C57.8265 99.255 57.6225 99.068 57.4355 98.881C56.3645 97.861 54.1885 95.634 52.4205 93.883C50.5675 92.047 48.6805 89.922 48.3745 89.599H48.3235ZM63.662 94.121V91.129C63.662 88.545 63.662 88.069 63.628 87.525C63.594 86.947 63.424 86.658 63.05 86.573C62.863 86.522 62.642 86.505 62.438 86.505C62.268 86.505 62.166 86.471 62.166 86.335C62.166 86.233 62.302 86.199 62.574 86.199C63.22 86.199 64.291 86.25 64.784 86.25C65.209 86.25 66.212 86.199 66.858 86.199C67.079 86.199 67.215 86.233 67.215 86.335C67.215 86.471 67.113 86.505 66.943 86.505C66.773 86.505 66.637 86.522 66.433 86.556C65.974 86.641 65.838 86.93 65.804 87.525C65.77 88.069 65.77 88.545 65.77 91.129V94.121C65.77 95.77 65.77 97.113 65.838 97.844C65.889 98.303 66.008 98.609 66.518 98.677C66.756 98.711 67.13 98.745 67.385 98.745C67.572 98.745 67.657 98.796 67.657 98.881C67.657 99 67.521 99.051 67.334 99.051C66.212 99.051 65.141 99 64.682 99C64.291 99 63.22 99.051 62.54 99.051C62.319 99.051 62.2 99 62.2 98.881C62.2 98.796 62.268 98.745 62.472 98.745C62.727 98.745 62.931 98.711 63.084 98.677C63.424 98.609 63.526 98.32 63.577 97.827C63.662 97.113 63.662 95.77 63.662 94.121ZM72.1135 89.599L72.3005 96.739C72.3345 98.065 72.5555 98.507 72.8955 98.626C73.1845 98.728 73.5075 98.745 73.7795 98.745C73.9665 98.745 74.0685 98.779 74.0685 98.881C74.0685 99.017 73.9155 99.051 73.6775 99.051C72.5725 99.051 71.8925 99 71.5695 99C71.4165 99 70.6175 99.051 69.7335 99.051C69.5125 99.051 69.3595 99.034 69.3595 98.881C69.3595 98.779 69.4615 98.745 69.6315 98.745C69.8525 98.745 70.1585 98.728 70.3965 98.66C70.8385 98.524 70.9065 98.031 70.9235 96.552L71.0765 86.488C71.0765 86.148 71.1275 85.91 71.2975 85.91C71.4845 85.91 71.6375 86.131 71.9265 86.437C72.1305 86.658 74.7145 89.429 77.1965 91.894C78.3525 93.05 80.6475 95.498 80.9365 95.77H81.0215L80.8515 88.137C80.8345 87.1 80.6815 86.777 80.2735 86.607C80.0185 86.505 79.6105 86.505 79.3725 86.505C79.1685 86.505 79.1005 86.454 79.1005 86.352C79.1005 86.216 79.2875 86.199 79.5425 86.199C80.4265 86.199 81.2425 86.25 81.5995 86.25C81.7865 86.25 82.4325 86.199 83.2655 86.199C83.4865 86.199 83.6565 86.216 83.6565 86.352C83.6565 86.454 83.5545 86.505 83.3505 86.505C83.1805 86.505 83.0445 86.505 82.8405 86.556C82.3645 86.692 82.2285 87.049 82.2115 88.001L82.0245 98.728C82.0245 99.102 81.9565 99.255 81.8035 99.255C81.6165 99.255 81.4125 99.068 81.2255 98.881C80.1545 97.861 77.9785 95.634 76.2105 93.883C74.3575 92.047 72.4705 89.922 72.1645 89.599H72.1135ZM97.605 96.042V97.912C97.605 98.371 97.588 98.405 97.384 98.524C96.279 99.102 94.613 99.289 93.287 99.289C89.122 99.289 85.433 97.317 85.433 92.625C85.433 89.905 86.844 88.001 88.391 87.066C90.023 86.08 91.536 85.961 92.964 85.961C94.137 85.961 95.633 86.165 95.973 86.233C96.33 86.301 96.925 86.403 97.316 86.42C97.52 86.437 97.554 86.505 97.554 86.624C97.554 86.811 97.435 87.287 97.435 89.412C97.435 89.684 97.384 89.769 97.248 89.769C97.129 89.769 97.095 89.684 97.078 89.548C97.027 89.157 96.942 88.613 96.5 88.137C95.99 87.593 94.63 86.811 92.709 86.811C91.774 86.811 90.533 86.879 89.343 87.865C88.391 88.664 87.779 89.939 87.779 92.03C87.779 95.685 90.108 98.422 93.695 98.422C94.137 98.422 94.732 98.422 95.14 98.235C95.395 98.116 95.463 97.895 95.463 97.606V96.008C95.463 95.158 95.463 94.512 95.446 94.002C95.429 93.424 95.276 93.152 94.715 93.033C94.579 92.999 94.29 92.982 94.052 92.982C93.899 92.982 93.797 92.948 93.797 92.846C93.797 92.71 93.916 92.676 94.154 92.676C95.038 92.676 96.109 92.727 96.619 92.727C97.146 92.727 98.047 92.676 98.608 92.676C98.829 92.676 98.948 92.71 98.948 92.846C98.948 92.948 98.846 92.982 98.727 92.982C98.591 92.982 98.472 92.999 98.268 93.033C97.809 93.118 97.639 93.407 97.622 94.002C97.605 94.512 97.605 95.192 97.605 96.042ZM107.44 94.121V91.129C107.44 88.545 107.44 88.069 107.406 87.525C107.372 86.947 107.236 86.675 106.675 86.556C106.539 86.522 106.25 86.505 106.012 86.505C105.825 86.505 105.723 86.471 105.723 86.352C105.723 86.233 105.842 86.199 106.097 86.199C106.998 86.199 108.069 86.25 108.545 86.25C109.242 86.25 110.228 86.199 111.01 86.199C113.135 86.199 113.9 86.913 114.172 87.168C114.546 87.525 115.022 88.29 115.022 89.191C115.022 91.605 113.254 93.305 110.84 93.305C110.755 93.305 110.568 93.305 110.483 93.288C110.398 93.271 110.279 93.254 110.279 93.135C110.279 92.999 110.398 92.948 110.755 92.948C111.707 92.948 113.033 91.877 113.033 90.143C113.033 89.582 112.982 88.443 112.03 87.593C111.418 87.032 110.721 86.93 110.33 86.93C110.075 86.93 109.82 86.947 109.667 86.998C109.582 87.032 109.531 87.134 109.531 87.321V94.121C109.531 95.685 109.531 97.028 109.616 97.759C109.667 98.235 109.769 98.609 110.279 98.677C110.517 98.711 110.891 98.745 111.146 98.745C111.333 98.745 111.418 98.796 111.418 98.881C111.418 99 111.282 99.051 111.095 99.051C109.973 99.051 108.902 99 108.46 99C108.069 99 106.998 99.051 106.318 99.051C106.097 99.051 105.978 99 105.978 98.881C105.978 98.796 106.046 98.745 106.25 98.745C106.505 98.745 106.709 98.711 106.862 98.677C107.202 98.609 107.287 98.235 107.355 97.742C107.44 97.028 107.44 95.685 107.44 94.121ZM120.705 91.129V94.121C120.705 96.297 120.705 97.47 121.062 97.776C121.351 98.031 121.793 98.15 123.119 98.15C124.02 98.15 124.683 98.133 125.108 97.674C125.312 97.453 125.516 96.977 125.55 96.654C125.567 96.501 125.601 96.399 125.737 96.399C125.856 96.399 125.873 96.484 125.873 96.688C125.873 96.875 125.754 98.15 125.618 98.643C125.516 99.017 125.431 99.102 124.547 99.102C123.323 99.102 122.439 99.068 121.674 99.051C120.909 99.017 120.297 99 119.6 99C119.413 99 119.039 99 118.631 99.017C118.24 99.017 117.798 99.051 117.458 99.051C117.237 99.051 117.118 99 117.118 98.881C117.118 98.796 117.186 98.745 117.39 98.745C117.645 98.745 117.849 98.711 118.002 98.677C118.342 98.609 118.427 98.235 118.495 97.742C118.58 97.028 118.58 95.685 118.58 94.121V91.129C118.58 88.545 118.58 88.069 118.546 87.525C118.512 86.947 118.376 86.675 117.815 86.556C117.679 86.522 117.475 86.505 117.254 86.505C117.067 86.505 116.965 86.471 116.965 86.352C116.965 86.233 117.084 86.199 117.339 86.199C118.138 86.199 119.209 86.25 119.668 86.25C120.076 86.25 121.317 86.199 121.98 86.199C122.218 86.199 122.337 86.233 122.337 86.352C122.337 86.471 122.235 86.505 122.031 86.505C121.844 86.505 121.572 86.522 121.368 86.556C120.909 86.641 120.773 86.93 120.739 87.525C120.705 88.069 120.705 88.545 120.705 91.129ZM133.676 94.614H129.885C129.8 94.614 129.766 94.648 129.732 94.75L128.814 97.181C128.644 97.606 128.559 98.014 128.559 98.218C128.559 98.524 128.712 98.745 129.239 98.745H129.494C129.698 98.745 129.749 98.779 129.749 98.881C129.749 99.017 129.647 99.051 129.46 99.051C128.916 99.051 128.185 99 127.658 99C127.471 99 126.536 99.051 125.652 99.051C125.431 99.051 125.329 99.017 125.329 98.881C125.329 98.779 125.397 98.745 125.533 98.745C125.686 98.745 125.924 98.728 126.06 98.711C126.842 98.609 127.165 98.031 127.505 97.181L131.772 86.505C131.976 86.012 132.078 85.825 132.248 85.825C132.401 85.825 132.503 85.978 132.673 86.369C133.081 87.304 135.801 94.24 136.889 96.824C137.535 98.354 138.028 98.592 138.385 98.677C138.64 98.728 138.895 98.745 139.099 98.745C139.235 98.745 139.32 98.762 139.32 98.881C139.32 99.017 139.167 99.051 138.538 99.051C137.926 99.051 136.685 99.051 135.325 99.017C135.019 99 134.815 99 134.815 98.881C134.815 98.779 134.883 98.745 135.053 98.728C135.172 98.694 135.291 98.541 135.206 98.337L133.846 94.733C133.812 94.648 133.761 94.614 133.676 94.614ZM130.225 93.764H133.353C133.438 93.764 133.455 93.713 133.438 93.662L131.908 89.463C131.891 89.395 131.874 89.31 131.823 89.31C131.772 89.31 131.738 89.395 131.721 89.463L130.157 93.645C130.14 93.713 130.157 93.764 130.225 93.764ZM142.257 94.121V87.151L139.724 87.219C138.738 87.253 138.33 87.338 138.075 87.712C137.905 87.967 137.82 88.171 137.786 88.307C137.752 88.443 137.701 88.511 137.599 88.511C137.48 88.511 137.446 88.426 137.446 88.239C137.446 87.967 137.769 86.42 137.803 86.284C137.854 86.063 137.905 85.961 138.007 85.961C138.143 85.961 138.313 86.131 138.738 86.165C139.231 86.216 139.877 86.25 140.438 86.25H147.17C147.714 86.25 148.088 86.199 148.343 86.165C148.598 86.114 148.734 86.08 148.802 86.08C148.921 86.08 148.938 86.182 148.938 86.437C148.938 86.794 148.887 87.967 148.887 88.409C148.87 88.579 148.836 88.681 148.734 88.681C148.598 88.681 148.564 88.596 148.547 88.341L148.53 88.154C148.496 87.712 148.037 87.236 146.524 87.202L144.382 87.151V94.121C144.382 95.685 144.382 97.028 144.467 97.759C144.518 98.235 144.62 98.609 145.13 98.677C145.368 98.711 145.742 98.745 145.997 98.745C146.184 98.745 146.269 98.796 146.269 98.881C146.269 99 146.133 99.051 145.946 99.051C144.824 99.051 143.753 99 143.277 99C142.886 99 141.815 99.051 141.135 99.051C140.914 99.051 140.795 99 140.795 98.881C140.795 98.796 140.863 98.745 141.067 98.745C141.322 98.745 141.526 98.711 141.679 98.677C142.019 98.609 142.121 98.235 142.172 97.742C142.257 97.028 142.257 95.685 142.257 94.121ZM154.207 92.744V94.121C154.207 95.753 154.207 97.028 154.292 97.742C154.343 98.235 154.445 98.609 154.955 98.677C155.193 98.711 155.567 98.745 155.805 98.745C156.026 98.745 156.094 98.796 156.094 98.881C156.094 99 155.975 99.051 155.72 99.051C154.649 99.051 153.578 99 153.136 99C152.694 99 151.623 99.051 150.977 99.051C150.739 99.051 150.62 99.017 150.62 98.881C150.62 98.796 150.688 98.745 150.875 98.745C151.13 98.745 151.334 98.711 151.487 98.677C151.827 98.609 151.912 98.235 151.98 97.742C152.065 97.028 152.065 95.753 152.065 94.121V91.129C152.065 88.545 152.065 88.069 152.031 87.525C151.997 86.947 151.861 86.675 151.3 86.556C151.164 86.522 150.875 86.505 150.637 86.505C150.467 86.505 150.348 86.471 150.348 86.369C150.348 86.233 150.484 86.199 150.739 86.199C151.181 86.199 151.674 86.216 152.116 86.216C152.558 86.233 152.949 86.25 153.187 86.25C153.833 86.25 157.284 86.25 157.675 86.233C157.998 86.216 158.202 86.216 158.372 86.165C158.474 86.131 158.559 86.063 158.644 86.063C158.712 86.063 158.763 86.131 158.763 86.216C158.763 86.335 158.678 86.539 158.627 86.981C158.61 87.151 158.576 88.154 158.542 88.358C158.525 88.494 158.491 88.596 158.372 88.596C158.253 88.596 158.219 88.511 158.202 88.324C158.202 88.188 158.202 87.916 158.1 87.678C157.981 87.44 157.624 87.185 156.978 87.168L154.36 87.117C154.258 87.117 154.207 87.168 154.207 87.355V91.605C154.207 91.707 154.224 91.758 154.326 91.758L156.502 91.741C156.791 91.741 157.029 91.741 157.267 91.724C157.59 91.707 157.828 91.639 157.998 91.418C158.083 91.316 158.117 91.248 158.219 91.248C158.287 91.248 158.321 91.299 158.321 91.401C158.321 91.503 158.236 91.928 158.185 92.455C158.151 92.795 158.117 93.577 158.117 93.696C158.117 93.849 158.117 94.019 157.947 94.019C157.845 94.019 157.811 93.9 157.811 93.781C157.811 93.662 157.777 93.458 157.709 93.254C157.624 93.016 157.369 92.71 156.842 92.642C156.417 92.591 154.615 92.591 154.326 92.591C154.241 92.591 154.207 92.625 154.207 92.744ZM167.639 99.289C162.76 99.289 160.788 95.634 160.788 92.625C160.788 89.718 162.709 85.961 167.809 85.961C172.042 85.961 174.677 88.426 174.677 92.319C174.677 96.212 171.957 99.289 167.639 99.289ZM168.353 98.439C169.543 98.439 172.297 97.861 172.297 92.948C172.297 89.14 170.104 86.777 167.316 86.777C165.361 86.777 163.134 87.865 163.134 92.098C163.134 95.634 165.089 98.439 168.353 98.439ZM178.229 94.121V91.129C178.229 88.545 178.229 88.069 178.195 87.525C178.161 86.947 178.025 86.675 177.464 86.556C177.328 86.522 177.039 86.505 176.801 86.505C176.614 86.505 176.512 86.471 176.512 86.352C176.512 86.233 176.631 86.199 176.886 86.199C177.787 86.199 178.858 86.25 179.215 86.25C179.793 86.25 181.085 86.199 181.612 86.199C182.683 86.199 183.822 86.301 184.74 86.93C185.216 87.253 185.896 88.12 185.896 89.259C185.896 90.517 185.369 91.673 183.652 93.067C185.165 94.971 186.338 96.484 187.341 97.538C188.293 98.524 188.99 98.643 189.245 98.694C189.432 98.728 189.585 98.745 189.721 98.745C189.857 98.745 189.925 98.796 189.925 98.881C189.925 99.017 189.806 99.051 189.602 99.051H187.987C187.035 99.051 186.61 98.966 186.168 98.728C185.437 98.337 184.791 97.538 183.839 96.229C183.159 95.294 182.377 94.138 182.156 93.883C182.071 93.781 181.969 93.764 181.85 93.764L180.371 93.73C180.286 93.73 180.235 93.764 180.235 93.866V94.104C180.235 95.685 180.235 97.028 180.32 97.742C180.371 98.235 180.473 98.609 180.983 98.677C181.238 98.711 181.612 98.745 181.816 98.745C181.952 98.745 182.02 98.796 182.02 98.881C182.02 99 181.901 99.051 181.68 99.051C180.694 99.051 179.436 99 179.181 99C178.858 99 177.787 99.051 177.107 99.051C176.886 99.051 176.767 99 176.767 98.881C176.767 98.796 176.835 98.745 177.039 98.745C177.294 98.745 177.498 98.711 177.651 98.677C177.991 98.609 178.076 98.235 178.144 97.742C178.229 97.028 178.229 95.685 178.229 94.121ZM180.235 87.304V92.472C180.235 92.659 180.269 92.727 180.388 92.778C180.745 92.897 181.255 92.948 181.68 92.948C182.36 92.948 182.581 92.88 182.887 92.659C183.397 92.285 183.89 91.503 183.89 90.109C183.89 87.695 182.292 86.998 181.289 86.998C180.864 86.998 180.558 87.015 180.388 87.066C180.269 87.1 180.235 87.168 180.235 87.304ZM190.008 97.351L191.691 86.267C191.742 85.978 191.844 85.825 191.98 85.825C192.116 85.825 192.218 85.91 192.439 86.352L197.08 95.94L201.704 86.233C201.84 85.961 201.925 85.825 202.078 85.825C202.231 85.825 202.333 85.995 202.384 86.352L203.931 96.858C204.084 97.929 204.254 98.422 204.764 98.575C205.257 98.728 205.597 98.745 205.818 98.745C205.971 98.745 206.09 98.762 206.09 98.864C206.09 99 205.886 99.051 205.648 99.051C205.223 99.051 202.877 99 202.197 98.949C201.806 98.915 201.704 98.864 201.704 98.762C201.704 98.677 201.772 98.626 201.891 98.575C201.993 98.541 202.044 98.32 201.976 97.844L200.956 90.364H200.888L197.182 98.082C196.791 98.881 196.706 99.034 196.553 99.034C196.4 99.034 196.23 98.694 195.958 98.184C195.55 97.402 194.207 94.801 194.003 94.325C193.85 93.968 192.83 91.826 192.235 90.551H192.167L191.283 97.317C191.249 97.623 191.232 97.844 191.232 98.116C191.232 98.439 191.453 98.592 191.742 98.66C192.048 98.728 192.286 98.745 192.456 98.745C192.592 98.745 192.711 98.779 192.711 98.864C192.711 99.017 192.558 99.051 192.303 99.051C191.589 99.051 190.824 99 190.518 99C190.195 99 189.379 99.051 188.835 99.051C188.665 99.051 188.529 99.017 188.529 98.864C188.529 98.779 188.631 98.745 188.801 98.745C188.937 98.745 189.056 98.745 189.311 98.694C189.787 98.592 189.923 97.929 190.008 97.351Z" fill="#58AE33"/>
</g>
<defs>
<clipPath id="clip0_5005_6957">
<rect width="209" height="99" fill="white"/>
</clipPath>
</defs>
</svg>
