<svg width="681" height="665" viewBox="0 0 681 665" fill="none" xmlns="http://www.w3.org/2000/svg">
<g opacity="0.5">
<path d="M46.5137 312.335L420.673 97.3572Z" fill="white"/>
<path d="M46.5137 312.335L420.673 97.3572" stroke="#32CD32" stroke-width="92.0138" stroke-linecap="round"/>
</g>
<g opacity="0.5">
<path d="M135.514 453.335L509.673 238.357Z" fill="white"/>
<path d="M135.514 453.335L509.673 238.357" stroke="#32CD32" stroke-width="92.0138" stroke-linecap="round"/>
</g>
<g opacity="0.5">
<path d="M605.514 184.335L634.674 167.359Z" fill="white"/>
<path d="M605.514 184.335L634.674 167.359" stroke="#32CD32" stroke-width="92.0138" stroke-linecap="round"/>
</g>
<g opacity="0.5">
<path d="M267.514 569.335L551.673 403.358Z" fill="white"/>
<path d="M267.514 569.335L551.673 403.358" stroke="#32CD32" stroke-width="92.0138" stroke-linecap="round"/>
</g>
<path d="M621.181 419.577C625.732 420.055 629.038 424.138 628.56 428.689C628.081 433.24 623.998 436.546 619.448 436.068C614.897 435.589 611.591 431.506 612.069 426.956C612.547 422.405 616.63 419.099 621.181 419.577Z" stroke="#32CD32" stroke-width="4.28355"/>
<path d="M137.474 588.362C144.957 589.148 150.394 595.863 149.608 603.346C148.821 610.829 142.107 616.266 134.624 615.48C127.141 614.693 121.703 607.979 122.49 600.496C123.276 593.012 129.991 587.575 137.474 588.362Z" stroke="#32CD32" stroke-width="7.044"/>
<path d="M328.645 29.5391C336.128 30.3257 341.565 37.04 340.779 44.5232C339.992 52.0064 333.278 57.4436 325.795 56.6571C318.312 55.8706 312.874 49.1562 313.661 41.673C314.447 34.1898 321.162 28.7526 328.645 29.5391Z" stroke="#32CD32" stroke-width="7.044"/>
<path d="M12.7813 207.09C16.2188 207.09 19.0098 209.881 19.0098 213.318C19.0098 216.756 16.2188 219.547 12.7813 219.547C9.34374 219.547 6.55273 216.756 6.55273 213.318C6.55273 209.881 9.34374 207.09 12.7813 207.09Z" stroke="#32CD32" stroke-width="5.14888"/>
<path d="M496.545 613.263C499.982 613.263 502.773 616.054 502.773 619.492C502.773 622.93 499.982 625.721 496.545 625.721C493.107 625.721 490.316 622.93 490.316 619.492C490.316 616.054 493.107 613.263 496.545 613.263Z" stroke="#32CD32" stroke-width="5.14888"/>
<path d="M567.302 27.5132L575.027 3.73674" stroke="#32CD32" stroke-width="3"/>
<path d="M559.668 11.9421L583.444 19.6675" stroke="#32CD32" stroke-width="3"/>
<path d="M37.7168 435.642L44.6077 411.61" stroke="#32CD32" stroke-width="3"/>
<path d="M29.5439 420.347L53.5755 427.238" stroke="#32CD32" stroke-width="3"/>
<path d="M557.347 543.808L562.97 519.449" stroke="#32CD32" stroke-width="3"/>
<path d="M548.385 528.961L572.744 534.585" stroke="#32CD32" stroke-width="3"/>
<path d="M333.185 134.47C432.389 134.47 512.935 215.016 512.935 314.22C512.935 413.424 432.389 493.97 333.185 493.97C233.981 493.97 153.435 413.424 153.435 314.22C153.435 215.016 233.981 134.47 333.185 134.47Z" fill="#32CD32"/>
<path d="M333.074 151.47C422.896 151.47 495.824 224.398 495.824 314.22C495.824 404.042 422.896 476.97 333.074 476.97C243.252 476.97 170.324 404.042 170.324 314.22C170.324 224.398 243.252 151.47 333.074 151.47Z" fill="#32CD32"/>
<path d="M259.574 320.189L303.574 363.189L406.574 260.189" stroke="white" stroke-width="18"/>
</svg>
